<?xml version="1.0" standalone="no"?>
<!DOCTYPE svg PUBLIC "-//W3C//DTD SVG 20010904//EN"
 "http://www.w3.org/TR/2001/REC-SVG-20010904/DTD/svg10.dtd">
<svg version="1.0" xmlns="http://www.w3.org/2000/svg"
 width="260.000000pt" height="260.000000pt" viewBox="0 0 260.000000 260.000000"
 preserveAspectRatio="xMidYMid meet">
<metadata>
Created by potrace 1.11, written by Peter Selinger 2001-2013
</metadata>
<g transform="translate(0.000000,260.000000) scale(0.100000,-0.100000)"
fill="#000000" stroke="none">
<path d="M1200 2495 c-86 -24 -300 -95 -350 -116 -307 -135 -580 -285 -628
-347 -25 -33 -132 -207 -132 -216 0 -2 -10 -25 -22 -52 -29 -65 -68 -175 -68
-194 0 -8 14 -28 31 -46 l31 -32 72 49 c40 27 75 49 77 49 3 0 5 -138 5 -307
0 -337 10 -588 24 -644 6 -20 26 -50 46 -68 75 -69 397 -269 534 -333 156 -73
212 -98 216 -98 3 0 25 -9 50 -20 68 -31 198 -77 209 -75 88 23 335 107 410
140 17 7 64 27 105 45 114 49 418 206 479 248 30 20 55 44 56 52 13 99 24 301
29 514 2 87 8 162 13 166 4 4 30 20 58 35 148 81 166 109 141 213 -38 149
-157 401 -232 489 -19 23 -61 61 -92 85 -31 24 -59 45 -62 48 -3 3 -57 39
-120 80 -250 162 -639 335 -775 346 -27 2 -75 -3 -105 -11z m1249 -1189 c-10
-9 -69 -36 -69 -32 0 7 52 35 64 36 5 0 7 -2 5 -4z"/>
</g>
</svg>
