<?xml version="1.0" encoding="utf-8"?>
<!-- Generator: Adobe Illustrator 25.2.1, SVG Export Plug-In . SVG Version: 6.00 Build 0)  -->
<svg version="1.1" id="Layer_1" xmlns="http://www.w3.org/2000/svg" xmlns:xlink="http://www.w3.org/1999/xlink" x="0px" y="0px"
	 viewBox="0 0 100 100" style="enable-background:new 0 0 100 100;" xml:space="preserve">
<style type="text/css">
	.st0{clip-path:url(#SVGID_2_);}
	.st1{fill:#00ACDC;}
	.st2{fill:#10294C;}
</style>
<metadata><?xpacket begin="﻿" id="W5M0MpCehiHzreSzNTczkc9d"?>
<x:xmpmeta xmlns:x="adobe:ns:meta/" x:xmptk="Adobe XMP Core 6.0-c004 79.164570, 2020/11/18-15:51:46        ">
   <rdf:RDF xmlns:rdf="http://www.w3.org/1999/02/22-rdf-syntax-ns#">
      <rdf:Description rdf:about=""
            xmlns:xmp="http://ns.adobe.com/xap/1.0/"
            xmlns:xmpGImg="http://ns.adobe.com/xap/1.0/g/img/"
            xmlns:xmpTPg="http://ns.adobe.com/xap/1.0/t/pg/"
            xmlns:stDim="http://ns.adobe.com/xap/1.0/sType/Dimensions#"
            xmlns:xmpG="http://ns.adobe.com/xap/1.0/g/"
            xmlns:dc="http://purl.org/dc/elements/1.1/">
         <xmp:CreatorTool>Adobe Illustrator 25.2 (Windows)</xmp:CreatorTool>
         <xmp:CreateDate>2021-04-17T23:09:38+10:00</xmp:CreateDate>
         <xmp:Thumbnails>
            <rdf:Alt>
               <rdf:li rdf:parseType="Resource">
                  <xmpGImg:width>256</xmpGImg:width>
                  <xmpGImg:height>256</xmpGImg:height>
                  <xmpGImg:format>JPEG</xmpGImg:format>
                  <xmpGImg:image>/9j/4AAQSkZJRgABAgEASABIAAD/7QAsUGhvdG9zaG9wIDMuMAA4QklNA+0AAAAAABAASAAAAAEA&#xA;AQBIAAAAAQAB/+4ADkFkb2JlAGTAAAAAAf/bAIQABgQEBAUEBgUFBgkGBQYJCwgGBggLDAoKCwoK&#xA;DBAMDAwMDAwQDA4PEA8ODBMTFBQTExwbGxscHx8fHx8fHx8fHwEHBwcNDA0YEBAYGhURFRofHx8f&#xA;Hx8fHx8fHx8fHx8fHx8fHx8fHx8fHx8fHx8fHx8fHx8fHx8fHx8fHx8fHx8f/8AAEQgBAAEAAwER&#xA;AAIRAQMRAf/EAaIAAAAHAQEBAQEAAAAAAAAAAAQFAwIGAQAHCAkKCwEAAgIDAQEBAQEAAAAAAAAA&#xA;AQACAwQFBgcICQoLEAACAQMDAgQCBgcDBAIGAnMBAgMRBAAFIRIxQVEGE2EicYEUMpGhBxWxQiPB&#xA;UtHhMxZi8CRygvElQzRTkqKyY3PCNUQnk6OzNhdUZHTD0uIIJoMJChgZhJRFRqS0VtNVKBry4/PE&#xA;1OT0ZXWFlaW1xdXl9WZ2hpamtsbW5vY3R1dnd4eXp7fH1+f3OEhYaHiImKi4yNjo+Ck5SVlpeYmZ&#xA;qbnJ2en5KjpKWmp6ipqqusra6voRAAICAQIDBQUEBQYECAMDbQEAAhEDBCESMUEFURNhIgZxgZEy&#xA;obHwFMHR4SNCFVJicvEzJDRDghaSUyWiY7LCB3PSNeJEgxdUkwgJChgZJjZFGidkdFU38qOzwygp&#xA;0+PzhJSktMTU5PRldYWVpbXF1eX1RlZmdoaWprbG1ub2R1dnd4eXp7fH1+f3OEhYaHiImKi4yNjo&#xA;+DlJWWl5iZmpucnZ6fkqOkpaanqKmqq6ytrq+v/aAAwDAQACEQMRAD8A9U4q7FXYq7FXYq7FXYq7&#xA;FXYq7FXYqgNR1/RNNB+v30FsR+xJIoY/Ja8j92W48E5/SCXGz6zDi+uUY+8sW1H84fKNrUWxnvm7&#xA;GKPitfcy8D9wOZ+PsjNLnUfx5Omz+0+lh9PFP3D9dMY1D88NReo07TYofB53aU/Pivp0+/M3H2LH&#xA;+KRPu/BdRn9rMh/u4Ae83+pjd/8Amb50vCa6gYE7JAqx0/2QHP8AHM3H2bgj/DfvdVm7f1eT+Ovd&#xA;t+1j93qepXpreXc1yfGaRpD/AMMTmXDHGP0gB1mXPkyfXIy95tdaatqtn/vJez21OnpSun/ESMZ4&#xA;oS5gH4Jx6nJj+mUo+4kJ3Z/mR51tKBNTkkUfszKktfpdS345iz7OwS/h/Q7DF27q4cpk++j96e2X&#xA;51+Y4qC6tLa5UdSoeNj9IZl/4XMWfY2M8iQ7HF7V5x9UYy+Y/HyT+x/O/SXoL7Tp4CephZJR8/i9&#xA;I5iT7FmPpkD9n63Z4fazEfrhIe6j+pkNh+Z3kq8oBqAgc/sTo8dP9kRw/HMSfZueP8N+52eHt/ST&#xA;/jr3gj9jIbPUtPvV5Wd1Dcr15QyLIKf7EnMOeOUfqBDtMWfHk+iQl7jaIyDa7FXYq7FXYq7FXYq7&#xA;FXYq7FXYq7FXYq7FXYq7FXYqhb/VdM0+P1L66itU7NK6pX5VO+WY8UpmoglpzajHiFzkIjzNMT1T&#xA;83vKNnVbd5b+QdPRQqtfdpOH4A5n4uyc0udRdJqPabSw+m5nyH66Yjqf52azNVdOsYbRDsHlLTP8&#xA;x9hfwObDF2NAfUSfsdJqPavLL+7iI+/f9TE9T87ea9TqLvU5ih6xxt6SfSsfEH6c2GLRYocoj73S&#xA;6jtbU5fqnL4bD7EkJJNTuTmS65rCrsVdirsVdirsVdirsVdiq6OSSNw8bFHXdWU0I+RGAi0iRBsJ&#xA;5p/nrzdYUFvqk5UdElb1l+6UOMxcmhwz5xH3fc7HD2vqsf05JfHf77ZNp351+YIaC+tLe7QdSvKF&#xA;z9I5L/wuYWTsbGfpJH2u3we1eeP1xjL7D+n7mUab+dHlq4ot7BPZMerUEqD6V+L/AIXMHJ2PlH0k&#xA;S+x3GD2p08vrEofaP1/YyrTPNnlvU6Cx1GCVz0j5BH/4B+LfhmBk0uWH1RLudP2lp830Tifv+R3T&#xA;bMdzXYq7FXYq7FXYq7FXYq7FXYqlureZNC0ha6lfRWxpURs1ZCPaNaufoGXYtPkyfSCXE1Ouw4P7&#xA;yQj9/wAubB9Y/OzTIappNlJdN0E0x9JPmFHJj9NM2mHsaR+s17nntV7V447YomXmdh+v7mE6t+Z/&#xA;nDUeSi8+pxN/uu1Hp0/2e8n/AA2bPF2Zhh0v3/inntT7QarL/Fwj+jt9vP7WLzTzTyGWaRpZG3Z3&#xA;JZj8yczhEAUHTymZGybKjLFHNE8Uqh45AVdT0IIoRhIsUVhMxII5hJG8oWcRrp11c6eeywysU+lW&#xA;5VzH/LAfSTF2g7XnL+8jDJ7xv8wpta+dLTeC8t9QjH7M6ek/3pt95yPDmjyIl72Yy6HJ9UJYz/RN&#xA;j7Vh806tabanos8ajrLbkTL+Gw/4LH8xKP1RPwZfyXhyf3WaJ8pen8fJEWnnTy5c0H1oQv3SZSlP&#xA;mT8P45KOrxnq0ZextTD+HiHlv+1OYbiCdOcEiSp/MjBh94y8SB5OunjlE1IEHzX5Jg7FXYq7FVK4&#xA;ura2j9S4mSGP+eRgo+85GUgObZjxSmaiCT5JS/m7THcx2KTajKNittGWAPux4rlB1Mf4bl7nYDsn&#xA;KBeQxxj+kf0JlYXF7PGXurX6oduKGQSN9PEUH35dCRPMU4WfHCJqEuP4UrJNC7lEkVnUAsoIJAPQ&#xA;ke+SBDUYSAsjZfhYuxV2KuxVONL83eZtK4ix1GaJF6RFucf/ACLfkn4ZjZdJiyfVEOdp+0tRh+ic&#xA;h5cx8jszHSvzs1eGianZRXajrJETC/zI+NT9wzXZexoH6SR9rvtN7V5Y7ZIiXu2P6f0Mz0n81fJ+&#xA;ocVkuGsZT+xcrxFf9deSfeRmty9l5ochxe532m9otLl5ngP9L9fJllvc21zEJraVJ4W+zJGwdT8i&#xA;tRmBKJiaIp3UMkZi4kEeSpkWbsVdiqncXNvbQtNcSpDCgq8sjBFA92NAMMYmRoCywnOMBciAPNg+&#xA;u/nB5csOUWnq+pTjaqfu4a/67Cp/2KnNpg7IyS3l6R9rz2s9psGPbH+8PyHz/UHnut/mh5t1Tki3&#xA;Asbdv91Wo4GnvJu/3HNxh7Mww6cR83l9X7QarNsDwR7o7fbzYm7u7l3Ys7GrMxqSfcnM8CnSkkmy&#xA;twodirsVdirsVdirsVQt5pWmXo/0q1imP8zqC30N1yuWOMuYcjDqsuP6JEfFJZ/IWjl/Us5JrGXs&#xA;0Lmn/DVP45jnRw6WHZ4+3c1VMRmPMKX6H86WW9nqqXiD/ddyvxH6TzP/AAwweFmjylfvZ/nNFl+v&#xA;GYH+j+B9zX+JPM9ltqWitIo+1LbHkKeNB6n68fHyR+qPyT/Julyf3WavKX4CItPPvl+Y8ZXktX6F&#xA;ZkI3+a8h9+SjrMZ57NOXsLUR3AEh5H9dJsLqy1K2dLO9Hxinq27oXX5VDU+7L+ITGx+Tr/CnhkDO&#xA;HLpIGv0IBvLOjwB7qW2k1G5UVrO/rO3sBIQmVfl4DcjiLljtLNKoCQxx8hwj7N1gPmqdRHa21tpV&#xA;uNh6h9WQD/JVPgHywfvTyAiGR/KRNzlPLLy2HzO6WXtpaJOYNSur/WroU52cCssW4qKqlFH/AAWV&#xA;TiLqRlM9wc7DlmY8WKOPDD+dIi/md/sRlpF5h4enpum2uj256vKfUkIGwPFO/wDrZOIyfwxEQ4+W&#xA;Wmu8uSeaXlsPt/QmFpot2rrLfalcXUgYNwUiCKq9PhjoforQ5bHEecpE/Y4eXWQIrHjjAf6Y/M/q&#xA;TXL3XuxV2KuxV2KuxVFWGp6jp8vrWN1Lay93hdkJ+fEiuVzxxmKkAW7DqMmI3CRifI0zLR/zj8y2&#xA;XFL9YtRiG1XHpSfIOgp96nNbm7IxS+n0u+0vtPqIbTAyD5H5j9T0ryj5+0nzM8kFtFLBdQp6ksUg&#xA;BHGoFVZSa7nvTNLq9BPBuaIL1nZvbOLVkiIIkBdH9aE/MjzteeWLS0FlDHJc3pkCvLyIQRhaniKV&#xA;Px+P35Z2do45ieI7Rae3O1Z6SMeAAynfPpVfreA335jr5huz+kNVaS4VqCC4rCFPgsbBFH0DOg0/&#xA;gw2hQ+/7Xjtdh1uT15bmPLcfZsF4IIqNwehzLdO7Ch2KuxV2KuxV2KuxV2KuxVBajrFhp/FbhyZX&#xA;3jhjVnkb5KoOVzyxjzcrT6TJl+kbDqdh8yl51fzFdmmn6V6CHpPfN6f3xLV8q8XJL6Y173M/KabH&#xA;/eZOI90Bf+yOynNa3kaerreuegnUQ25W3X5Bz+8bImJG85V7tmcMsCawYeI98rl9nIL4fM9iyLBp&#xA;cFzqPABA8asV22+OWUj78kNRHlEGX47ywn2ZkB4ssoY77z90Yo9bOPULcNqmnwrITtExWYgdvi4i&#xA;h+X35Zw8Q9QH3uIcxwy/dTlXf9P2Wll15C8vzHnCklrJ1DQuevybkPuymWjgeWznYu3dRHaREx5j&#xA;9VKH+HfNFl/xztaMiDpFdLyFPCp9T8BkfAyR+mXzbf5R0uT+9xV5x/AXDV/OVl/vbpSXkY/3Zat8&#xA;R/2Pxn8Bh8XLHnG/cj8posn0ZTA90h/Z96rB560YuI7xJrGXus8ZH/Ea/iMI1kOthrn2Hmq4GMx/&#xA;RKc2mpafeCtrcxz+yMGI+YG4zIjkjLkbdbl02TH9cTH3hE5NodirsVdirsVaZlVSzEKo3JOwGBIB&#xA;OwSS/wDOegWjcBP9am6CK3HqEnwqPh/HMeeqhHrfudng7H1GTeuEd8tv2oZdS83an/vFYppsB6XF&#xA;0SZKeISn6xkPEyz5DhHm3nTaPB9czkl3R5fP9qvB5SgkkWfVrmXU51NQJSViU/5MYNMkNMDvI8Ra&#xA;sna0gOHDEYo+XP5vX/yUl4+ablCaB7J6DxIljP6q5hdsj90P636C7H2UlWpkO+B++KYfnlLW70iK&#xA;v2I5np/rMg/41ynsQbSPucn2ul6sY8pfoeSX2labfrxvLaObsCw+IfJuo+jNzPHGXMPL4NVlxG4S&#xA;MUmbyhJanlo+pXFieohY+rF/wJp+Nco/K19EiHZDtcT2zY4z8+R+aw3nnew/3otIdTiHWSBuEh+g&#xA;/wAFwcWaPMCTLwdDl+mUsR/pbj8fFdD570oSCK/hn0+b9pZozQfd8X4YRrI8pAxYz7Dy1eMxyDyP&#xA;4+9OrPVdNvR/ol1FMf5UYFvpXrl8ckZci63NpcuL64mPwRWWOO7FXYq7FXYq7FXYqoXls1zAYhPJ&#xA;bg9XhIVqeFSGp9GRlGxV024cnBK6EvexhINLScnTtEn1K5rvdXVQhI7+pPX8FzDAjfpiZHvP7Xem&#xA;eUx/eZo44/zY8/lH9aPSz82XQAnuoNNg6CK2T1Hp4cn2B+WWCOWXMiI8nEObSY/pjLJLvkaHyH6U&#xA;w0/RoLOQy+tPc3DChmuJWc0PYDZR9Ay2GIR3sk+bh6jWSyCqjGPdEV+1H5a4jsVdiqyWGGZOE0ay&#xA;IequAw+44CAebOE5RNxNFKbryd5duDy+qLC/UPCTHT5BSF/DKJaXGejsMXbGphtxWPPdRXy5qlr/&#xA;AMc7WZ0UdIrkLOvy3pT6Mj4Eo/TI/HdsPaOLJ/eYo++PpRFtL5pinSO6gtrmFiA08LtGyjxKODX5&#xA;DJROQHcAtOSOklEmEpxl3EA/aEyuLq1to/UuJkhT+aRgo+85dKQHNwseKczUQSfJIb3z5oUDenbm&#xA;S9mOypCppXw5NT8K5jT1kBy3dth7Czy3lUB5ocap521P/eKwTToT0muN2H0MP+NMh4mafIcPvbvy&#xA;uhwfXM5Jd0fx/vlyeSZrthJrWpTXpG/pKeEYP01/ADCNIZfXIlie2hjFYMcYefM/j5p7YaNpenrS&#xA;zto4T05gVc/NjVj9+ZMMUY8g6rPrMub65E/d8uSMyxxnYqzj8npCvnJVFP3lvKp/Btv+BzV9rj9z&#xA;8Q9D7MSrV++JR353S18wWMVfsWgen+tI4/41yrsUfuyf6X6HJ9rJfv4D+h+kvOc3LyrsVdiqnPb2&#xA;9wnpzxJKh/YdQw+45ExB5s4ZJQNxJB8kkvfI3l65JZIWtpOoeBitD/qnkv4Zjz0eM9Kdph7c1MNi&#xA;eIef4tCf4a8zWW+ma0zqPsw3I5ADwqfUH4ZDwMkfpl83I/lLS5f73FXnH8D73fpjzrY/726Ul5GP&#xA;92Wx+I/QOf8AxHHxc0ecb9y/k9Dl+jIYH+l+B96rB5/0Yv6d5HPZSj7QlQkD/gan8MI1sOthrydg&#xA;5quBjMeR/H3pzZ6xpV7QWt3FKx/YVhy/4HrmRHLGXIutzaPLj+uJHwRmWOM7FXYq7FXYq7FXYq7F&#xA;XYq7FXYqll95m0KyqJ72MMOqIfUb7k5HKZ6iEeZc7B2bqMv0wP3felDed5bolNH0u4vD09RhxQe+&#xA;3L8aZR+bJ+iJLsB2IMe+bJGHl1/R+lil/wCe/MN1VVmW2Q/swLxP/BHk33HMKesyS609Bg7D02Pm&#xA;OI+f6uSRTXE88hknkaWQ9Xdix+85jGRPN2sMcYCogAeTKfy1b/c3cLtQ2zH6Q6f1zM0H1n3Oh9pB&#xA;+4j/AF/0F6Tm3eKdirsVdirsVZd+VMgXzzYLT7azqP8AkS7fwzXdqD9xL4fe7z2dNayH+d/uSjfz&#xA;ll5+b0WtfStIlp4VZ2p/w2V9jisP+cW/2oleq90B+lgmbV5x2KoCXzBocTlJL+BXHVfUWo+dDlRz&#xA;QHUOZHQZ5CxCXyKIttQsLr/ea5im/wCMbq36jkozieRacmnyQ+qJj7wr5NpdirsVU7i1trhOFxEk&#xA;yfyyKGH3GuRlEHm2Y8soG4kg+SS3fkjy5c1ItvQc/tQsV/4XdfwyiWkxnpTssXbeph/Fxe/8WhR5&#xA;S1a030vW54lX7MMw9Rf18f8Ahcr/AC0o/TIt57Ww5P73DE+Y2/HzXiXz5af3kNrqKDqUb03I+ngP&#xA;ww3nj0EmJh2fk5GeM+e4/T964eb5oDTUdIu7XxdV9VB/shxw/mSPqiQj+SIy/ussJfGj8kXa+b/L&#xA;lxst6kbd1lrHT6XAGTjqsZ6uPl7I1MOcCfdv9yaQ3FvOvKGVJV8UYMPwy4SB5OBPHKO0gQqZJg7F&#xA;UJf6vpmngG8uUhJFVVj8RHiFG5yueWMeZcnBpMub6ImSVt5uSbbTNPur7wkWMxxH/Zt/TKfzN/SC&#xA;XOHZJj/ezhDyuz8gpmTzzeH4I7bTIz3c+tIPu5L+GC80u6LMR0GPmZ5T/pR+tYfJs93vq2q3N2Du&#xA;YkPpx/8AA/EPupg/KmX1SJZfyxHH/c44Q8+ZTGy8reX7Ohhsoyw/bkHqNXxq9afRlsNPCPIOHm7U&#xA;1GTnM/Db7k1AAAAFANgBlzgEvDJUCSug6KxG/sc50jd9TgbAKzAlk/5dsB5hp/NC4H3g/wAMzND/&#xA;AHnwdH7Qi9N/nB6fm4eGdirsVdirsVZN+WsnDzxpTV41d1r/AK0TrT6a5g9oi8Evx1dv2Ea1mP3n&#xA;7ii/zal5+d7ta19OOFaeFY1b/jbK+yhWAfH7272klesl5CP3MLnmWGCSZ/sRKXb5KKnNiTQt0sIG&#xA;UhEdSxdtdv8AUvJeoX5jWKU80QR12jqATv3oTmF40p4TJ3o0OPDrYY7sbHfveaZqXtWwSCCDQjoc&#xA;VTKz8y69Z09C+lCjorn1FH+xfkMtjnnHkXCzdm6fJ9UB933J5ZfmTqsVBdW8Vwo6laxsfp+JfwzJ&#xA;hr5DmLdXm9nMUvokY/b+Pmn1l+YuhzUFwstq3csvNfvSp/DMmGugeezqc3s9nj9NS+z7/wBafWer&#xA;6XegfVbqKYn9lWHL6V65kxyxlyLqc2ky4vriR8EXljjuxV2KuxVQuLGxuf8Aei3im/4yIrfrByMo&#xA;A8w248+SH0yI9xpAP5S8us4cWSo43DRs8ZH/AADLlR02Pucwdq6kCuOx50fvTZQFUKOgFBXf9eXO&#xA;vJtBaXq9nqaTPaliIJDE/IcfiXIY8onddHJ1OknhIE/4haKeCB3WR41aRdlcqCR8icmYhoGSQFAm&#xA;l+Fg7FXYq7FXYq8S1JSmo3Snqs0gP0Mc57J9R976fpjeOJ/oj7kNkG5kXkFiPMsAH7SSA/8AAE/w&#xA;zK0X94HT9vD/AAU+8fe9UzdPBOxV2KuxV2Kp95DcJ5x0gnetyi/8Ft/HMTXC8Mvc7Lsc1q8f9YIr&#xA;8zZDJ551Rj2aNdv8mFF/hkOzRWCP46lu7flesyfD/chis0SSxPFIKpIpVx4hhQ5mkWKdTCRiQRzD&#xA;CLQ6j5UM9pe2zXmhzMSJ4xy4hhQ8gfEdQfozXR4sNgi4PT5Rj19Txy4M46H8fI/NAzeVdF1VjLoG&#xA;oRhm3+pzEgj2H7X4H55WdNCe8D8HLh2pnwbaiB/rD8V9vwSa/wDK2v2NTNZuUH+7I/3i/Mla0+nM&#xA;eennHmHZYO1NPl+mYvz2+9KumUue1irsVb6YqmVl5l12yoIL2QKOiOea/wDAvyGXQ1E48i4Wbs3T&#xA;5fqgPu+5kNh+Zd4hC31qkq93iJRvnQ8gfwzKhrz/ABB0+f2bgd8ciPfv+PtZTpfm/QtRKpFP6Uzd&#xA;IZvgavgD9k/QczMephPkXRarsjUYdzG4943/AGpzmQ6x2KuxV2KsS8hMRLrERFClzUj5lh/xrmDo&#xA;+ch5vQ9ujbEe+H6mW5nPPOxV2KuxV2KuxV4vrqhdb1BQKAXMwA9vUOc/m+s+8vpehN4IH+hH7kDl&#xA;blJ75IYL5osSelZB98TjMjSf3g/HR1fbQvSz+H+6D1nN4+fOxV2KuxV2Kpx5Pcp5s0Yjqb23X6Gl&#xA;UH9eY2rF4Z/1T9zndmGtTj/rx+9W8+OH846uRtS5df8Agdv4ZHQisMfc2dsG9Xk/rFIcy3Wu64qk&#xA;uo+TtBviWa39CU7+rB+7NfGg+H8Mx56WEulOz0/a+oxbcXEO6W/7Uv8A0F5s07fTNU+tRDpb3Qqa&#xA;eAY8v4ZV4OWP0yv3uZ+e0mb+9x8J74/gfpQd9qM1CPMXlzmP2rqBQ1P9kK0/4PK55D/lIfEfj9Lk&#xA;4NPH/kNnr+jL8f71LTpXkbUN7PUXsJT0jn+yP+Dp/wATyrw8MuR4XN/Na/D9eMZB3x5/Z/xKhc+Q&#xA;NYVPUspIb6I/ZaNwCf8Agvh/HIy0U+lFtx9vYSamJQPmPx9yR3mlanZH/SrWWEfzOpC/Q3TMaWOU&#xA;eYdph1WLJ9EgfihMg3uxV2Ks18h+Zbv64mk3TmWGUH6uzGrIyivGv8pAzYaPUG+EvM9u9mw4DmgK&#xA;kOfn+16Dm0eQdirsVYd5IYrrmvxHYmapHf4ZJB/HMDSfXMef63pO2heDCf6P6IsxzPebdirsVdir&#xA;sVdirx3zOpXzDqAP+/3P3muaHUf3h976P2Yb00P6oSvKXOTjyg/HzJYGlf3hH3qRl+lP7wOu7XF6&#xA;afuevZvXzt2KuxV2KuxVMfLbMvmLS2U0ZbuAg+4lXKdR/dy/qn7nK0JrPj/rx+9V82yep5q1hq8g&#xA;b24oR4CVgPwyOkFYo/1R9zPtI3qch/py+9KcyHCdirsVdirsVQV7oekXtTdWcUjHq5UBv+CFG/HK&#xA;p4YS5hysOtzYvokR93ySeTyHpqMZNPubmwk7GKQ0/H4v+Gyg6OP8JMXYx7dykVkjDIPMfgfY1+jP&#xA;OlmKW2pQ30Y/3XdJxJHzFSf+Cx8PNHlIH3p/M6HJ9WOUD/RP4+5LruJmr+mPK/L+a4sSCfnRDX72&#xA;yqQ/n4/k5mKYH9zqPhP9v6kqk0nyXcMVh1CfT5j/ALquYyQPwX/iWUHHhPImPvdhHV62H1QjkHfE&#xA;/j7kLN5UgG8GtafIvbnMI2+74v15A6YdJR+bfDtWX8WLKP8ANtO/K/kq/ttTt9Rnnhe3iq6ekxfn&#xA;VSBQ0ApvXMnT6SQkJEinV9p9tY54pY4iXEdt9qZ3myeUdirsVYV5TYr5x1yM7cnlb32m2/4lmu03&#xA;97L4/e9P2qL0WE+Uf9yzXNi8w7FXYq7FXYq7FXkPm9OPmS/Fa/vAfvUHNFqh+8L6J2Qb00Pck+UO&#xA;xTTywxXzDp5H+/0H3mmXaf8AvB73B7TF6af9UvYs3z5w7FXYq7FXYqi9IJGrWRGxE8VD/sxleX6D&#xA;7i36b+9j/WH3r9dcSa3qEg2D3MzAH3kJwYBUI+4MtYbzTP8ASP3oHLXGdirsVdirsVdirsVdirsV&#xA;WyQxSrxkRXXwYAj8cBALKMzHkaQ36I0mtfqUFfH0k/pkPCj3Bu/N5v58vmUWqqqhVACgUAGwAGTa&#xA;CbdhQ7FXYqwby6xXz/qoI+0Jh/yUU/wzW4P7+Xxep7QF9n4/837iznNk8s7FXYq7FXYq7FXk3nZQ&#xA;vmi+A8Yz98SnNHq/7wvoPYpvSw+P+6KRZju0TDy+xXXtOI6/WYR9BcDLcH1x94cTtAXp8n9SX3PZ&#xA;s375q7FXYq7FXYqrWZIu4CDQiRCCP9YZGfItmL6h712oOZL+5kOxeV2IHuxODGKiPcnMbnI+ZQ+T&#xA;anYq7FXYq7FXYq7FXYq7FXYq7FXYq7FXYq7FWCaU3H8xrwE05eoKePwg/wAM1uP/ABgvV6oX2bH4&#xA;M7zZPKOxV2KuxV2KuxV5T58UDzPdEdWWMn/kWo/hml1n94Xvuwj/AILH4/eWP5iu3RmjMV1ixYdV&#xA;uIiPocZPF9Y97j6wXhmP6Mvue1Z0L5k7FXYq7FXYquR2R1dftKQR8xvgItING3SOZJGdvtMSxp4n&#xA;fEClkbNrcKHYq7FXYq7FXYq7FXYq7FXYq7FXYq7FXYq7FWBW7U/M1x/MXH/TvX+GayJ/wj8dz1mQ&#xA;X2WPh/u2e5s3k3Yq7FXYq7FXYq8t/MBQPMkp/mjjJ/4Gn8M02t/vHvOwDemHvLG8xHcorS24alaO&#xA;d+M0Zp8nGTx/UPe06kXikP6J+57ZnQvmDsVdirsVdirsVdirsVdirsVdirsVdirsVdirsVdirsVd&#xA;irsVdirsVYDJ8H5njjtVl/4a2Ff15rD/AIz+O566O/Ze/d/v2fZs3kXYq7FXYq7FXYq8v/MIH/Eb&#xA;+8UdPuOabW/3j3fs/wD4sPeWM5iO6RFh/vdbf8ZU/wCJDJQ+oNWf+7l7i9uzony92KuxV2KuxV2K&#xA;uxV2KuxV2KuxV2KuxV2KuxV2KuxV2KuxV2KuxV2KvP74FPzLjYH7UkR+j0Quauf+MfjuevwG+zD7&#xA;j/unoGbR5B2KuxV2KuxV2KvMvzG/5SBf+MCf8SbNPrvr+D3Hs7/i/wDnH9DFsw3eoiw/3utv+Mqf&#xA;8SGSh9Qas/8Ady9xe3Z0T5e7FXYq7FXYq7FXYq7FXYq7FXYq7FXYq7FXYq7FXYq7FXYq7FXYq7FX&#xA;n2qsV/Me3I/35APvQDNXk/xgfB6/Si+zZe6X3vQc2jyDsVdirsVdirsVeZfmN/ykC/8AGBP+JNmn&#xA;131/B7j2d/xf/OP6GLZhu9RFh/vdbf8AGVP+JDJQ+oNWf+7l7i9uzony92KuxV2KuxV2KqtyoW5l&#xA;VRRQ7AAeAORjyDPIKkfepZJglGteZrPR54kuopTHKCRNGoZQQaUNSMoy6gYzu7HRdmz1ESYEWOhX&#xA;2XmfQb2ggvY+R/Yc+m3yo/Gv0YYaiEuRY5uzNRi+qB+G/wByaAgio3B6HLXBdhQ7FXYq7FXYq7FX&#xA;Yq7FXYq7FXYq8/1peP5iWh/mktz+ofwzV5f78fB6/RG+zZe6T0DNo8g7FXYq7FXYq7FXmX5jf8pA&#xA;v/GBP+JNmn131/B7j2d/xf8Azj+hi2YbvURYf73W3/GVP+JDJQ+oNWf+7l7i9uzony92KuxV2Kux&#xA;VfFGZJUjBoXYKD8zTATQZRFmkRqyhdUvFA4hZ5Bx6Uo52yGL6B7mzUiskv6x+9CZY0pNrx8yq8b6&#xA;THDcQ8SJrealWNe1Svb/ACsx83ifw0XZaD8sQRmMoy6Efg/cxa8udJ3GueXZLNu9xbAqtfHbgv4n&#xA;MOco/wAcK9zvsOPN/kM4n5S/BP3Jj5Xk8tWl20llq7mGSMoLO5PABiwNRy4qSKU2y3TnHE7S+BcP&#xA;tOOqyQqeIWD9Ud/1pnq2o+Zra79Swso77TioI4tSSvelD/xqctyTyA+kXFwdLp9LOFZJmGT7Px8U&#xA;ND5+sEcRala3FhL3EiFgPwDf8LkRrI8pAxb59g5CLxSjkHkfwPtTqy1vSb6n1W7ilY9EDAP/AMCa&#xA;N+GZEMsZci6zNos2L64kfd80bljiuxV2KuxV2KuxV2KuxVgOuf8Akw7L/Xg/Xmszf34+D12h/wCM&#xA;6fukz7Nm8i7FXYq7FXYq7FXl/wCYTE+YmB6CKMD8Tmm1v94917Pj/Bv84sZzEd2idMXnqVolacpo&#xA;xX5sMnj+oe9p1JrFI/0T9z23OhfMHYq7FXYq7FVexRnvbdFFWaRAB7lhkJn0lsxC5geYRfmVGTzH&#xA;qqN9pby4U/MSsMr0xvHH+qPub9eKz5B/Tl95S3L3EdiriARQ7g9RgSwvzE+jQX80WoaC7Wq8SuoW&#xA;6leVVBNeIQbHbdswM5gJESht3h6Xs8Z5YwceYcf8yXv+P3Ivyxq/lOztmtbO9MaySGT07o8CpIAo&#xA;GIC/s+OT0+XFEUD83H7T0msyS45wuhXp3/asu5POCNI31e11jT3dmRRxJCE/CP2amm3Q4JHL3CUW&#xA;WKOjIA4p4cgHnz+39CS3M3lWR+GqaPcaTO37cVQo+QIUf8JmPI4j9UTEuzxw1cReLLHLHz/H6U28&#xA;uxWkV/E9j5hNzZDlysZjRiCpAoGI6NT9kZfgAEvTOx3Ov7QlOWMjJg4Z/wA4e/y/WnWu6tqenPC9&#xA;rp7X0DBvW9MkMpFKdA36syM2SUeQsOt0OkxZgROYhLpfVBWnnzRJpBFcCWzmrQpMhpXwqtfxyuOs&#xA;gdjs5OXsLPEXGpx8iyPMt0rsVdirsVdirz7WST+YtsD2ltwPuBzV5f8AGB8HsNGP9bZe6T0HNo8e&#xA;7FXYq7FXYq7FXl35gkHzHIAekUYP3VzTa3+8e77AH+DD3ljWYjukZo4J1exAFSbiKg/2YyeL6h73&#xA;H1n9zP8Aqn7ntWdC+ZOxV2KuxV2Ko3RkZ9YsUX7TXEQHzLgZVmNQPuLkaUXlgP6Q+9Gec0CebdYA&#xA;6G8nbfxaQk/ryvRm8MP6ob+1BWqyf15fek2ZLgOxV2KuxVLr3y7od7U3FlEzHq6jg/8AwS0OUzwQ&#xA;lzDm4e0c+L6Zn7x9qTv5DigYyaVqFxYv1oG5L+BQ/ecoOjA+kkOxj26ZCs0IzH496nJD57s0KOLb&#xA;V7fujgBqe9fT/jgIzR7pBnGegyGxx4Zfj3/oSe7n8uu3HWNCn0yUmnqwAha+NPgX8DlEpY/44GLs&#xA;cWPUgXhzRyjuP4P3hXsrWEU/QHmUx/yWt0aD7moP+EyUIj+CfwLVmyy/5Eae/wClH9n/ABSOml81&#xA;xlE1TSbfVYAR++jALfMdT/wmWE5R9URIOLCOkNnFllil3H8fpZhme847FXYq7FXYq891f/yY1v8A&#xA;8Zbf/iK5q8v+MD4PYaT/AIzZe6X6XoWbR492KuxV2KuxV2KvKvPv/KTXH+rH/wAQGaXWf3he+7C/&#xA;xWPvP3sezFduj9A/47unf8xUP/Jxcsw/XH3hxdf/AHGT+pL7i9nzoHzR2KuxV2KuxVM/LMZk8yaT&#xA;GDQveW6g/OVRlGpNYpf1T9zl6AXqMY/px+8I/wDMOMp501ZT3m5bf5Shv45V2ebwR9zldtitXk97&#xA;HczHVOxV2KuxV2KuxV2KtMqupVgGU9QdwcCQSNwlF75R8vXlTJZojn9uKsZr4/DQfeMonpscujsc&#xA;Pa2px8pkjz3+9Ll8mXlk4bSdWngRTX0JPiQ+21B/wuVflTH6ZEOYe2YZRWbFGR7xz/HxZTma6F2K&#xA;uxV2KuxV5/fty/MqIfyyRD/kkD/HNXM/4R+O56/AK7MPul/unoGbR5B2KuxV2KuxV2KvJ/PP/KU3&#xA;v/PL/kymaTV/3h/HR9A7E/xSHx/3RSHMZ2qZ+Wv+Ug0//jPH/wASy3T/AFj3uF2l/i8/6pex5v3z&#xA;d2KuxV2KuxVOvJiK/m3RwegvIT9KuCP1Zjaw/uZf1S5/ZYvVY/68fvTH80Y/T89anQUDeiw96wJU&#xA;/fXKezDeCPx+8uX7QRrWT+H+5DFMz3SuxV2KuxV2KuxV2KuxV2KuxV2KuxV2KuxV2KvP5uL/AJnD&#xA;uA6fetuP4jNWf8Y/Hc9fCx2X8D/u3oGbR5B2KuxV2KuxV2KvJPOZJ8zX1f5l/wCILmj1X94X0Psf&#xA;/FYfH7ykmY7sk38p/wDKR2H/ABlH6jl+m/vA6/tX/Fp+56/m9fOnYq7FXYq7FWRfl4hfzppIHUTc&#xA;voVST+rMPtA1gl7na9iC9Xj96Zfm7GF86zt/PDCx/wCA4/wyjsk/uB7y5XtLGtWfMD7mF5s3QOxV&#xA;2KuxV2KuxV2KuxV2KuxV2KuxV2KuxV2KsAg4t+Zx7jm/3i3P8c1Y/wAY/Hc9dOx2X8B/u2f5tHkX&#xA;Yq7FXYq7FXYq8f8ANhr5jv8Aev70/gBmi1P94X0bsr/Foe5Kcoc9O/JgJ8zWIG/xOfujY5kaX+8D&#xA;rO2T/gs/h94et5vHz12KuxV2KuxVlf5XR+p560wEEhTMxp2pA5B+/MDtM1gl8PvDufZ+N6yHx/3J&#xA;TP8AOmPj5sgatedlG3y/eSL/AAyjsY/uT/W/U5ntUK1Q84D75MBzbPNOxV2KuxV2KuxV2KuxV2Ku&#xA;xV2KuxV2KuxV2KsB00V/MicgVo8tT4fuyM1mP/GC9dqf+MyPuj97Ps2byLsVdirsVdirsVeN+ZGB&#xA;1/USNx9YkH3MRmgz/Wfe+k9nCtPD+qPuS3KnMT/yKpPmi0I/ZEpP/Iph/HMnR/3gdT24a0svh/ug&#xA;9XzdvAOxV2KuxV2Ks0/KKPl51t2/33DM3/Ccf+Ns1nax/cH3h3/s1G9WPIH7k0/O+Omt6fJ/NbFf&#xA;+BkJ/wCNso7FPokPNzPayP76B/o/peb5unlHYq7FXYq7FXYq7FXYq7FXYq7FXYq7FXYq7FWBaCvL&#xA;8wb8/wApnP8AwwH8c1mH+/Pxes15rs6H+az3Nm8m7FXYq7FXYq7FXi+uMH1rUGHRrmYj6ZDnP5vr&#xA;PvL6ZohWCA/oR+5A5W5LJPy/UHzJEf5Y5CP+Bp/HMvRf3jpu3zWmPvD1LNy8G7FXYq7FXYqz78lo&#xA;+Xmydq04WUjfP95Gv8c1PbJ/cj+t+t6X2VF6o+UD98U1/POOk+jSfzLcL7/CYz/xtmP2Idpj3fpc&#xA;32ujvjP9b9DyzN88a7FXYq7FXYq7FXYq7FXYq7FXYq7FXYq7FXYqwXyqpbzzrDEV4m4ofA+uoH4Z&#xA;rdN/fS+P3vV9qGtBiH9X/clnWbJ5R2KuxV2KuxV2KvEtSYvqN0x6tNIT9LHOdyfUfe+n6YVjiP6I&#xA;+5DZFuZT+XS18wMaV4wOfluo/jmZof7z4Oi9oT/g/wDnD9L03Nw8O7FXYq7FU00XyzrutScNNs5J&#xA;xWjSgcY1/wBZ2oo+/KM2px4x6jTmaXQZtQaxxJ+758nsH5efl7c+WpZr28uVluriP0jDEDwQcg32&#xA;zQsdvDOd7Q14zARiNg9z2J2LLSEznK5SFUOXzZB5k8qaN5it44dSjZjDyMEsbFXQtQEjt2HUHMPT&#xA;6qeE3Hq7TXdnYtVEDIOXLyec6z+SV9Hyk0i+SdeoguB6b/IOtVJ+gZucPbUT9Yr3PK6r2UmN8Ur8&#xA;jt9v9jCNW8p+Y9Jqb/T5oo16zBecf/IxOS/jm0xarHk+mQee1PZuowfXAgd/T5jZKMyHBdirsVdi&#xA;rsVdirsVdirsVdirsVdirsVYP5MBfzTrUpPxcpK/7KYn+Ga7S/3kvx1ep7Z20mIe7/cs4zYvLOxV&#xA;2KuxV2KuxV4bO3KeRq15Mxr41Oc5Lm+p4xUQPJTwMmXflopOtXDdhbMPvkT+mZ2g+s+55/2kP7iI&#xA;/p/oL0jNs8UrWtnd3kwgtIJLiZvsxxKXY/QoJyMpiIsmg2Y8UpmogyPluzTRfyg80X3F7309NhO/&#xA;7085KHwjQ/8AEiM1mbtbFH6fUXfaX2Z1OTedQHnufkP00z/Q/wAp/Kum8ZLiNtRuB+1cUMdfaIfD&#xA;/wAFXNTn7Vyz5ekeX63ptJ7OabFvIccvPl8v12zGKKKKNY4kWONRRUUAKB4ADNcSTuXfRiIihsF2&#xA;BLsVdirsVSLVfI/lTVOTXemxeq25miHpPXxLR8a/TmVi1uWHKR+912p7J02b6oC+8bH7GH6p+SNg&#xA;9W0vUJID1EVwokX5cl4Efcc2OLtqQ+uN+50Wo9k4HfHMj37/AKmIan+VPnKxqUtkvYx+3bOG/wCE&#xA;bg/3DNji7Uwy6173R6j2d1ePlHjH9E/o2LFruxvbOX0ru3ktpf8AfcqMjfcwBzOhOMhYNumyYZ4z&#xA;UwYnzFKGTa3Yq7FXYq7FXYq7FXYq7FWF+Q/j1bXJun70bf6zyH+Ga/R/VI/jq9N27thwjy/RFmmb&#xA;B5l2KuxV2KuxVqRuCM9K8QTT5YCyiLNPCs5x9TR2k6HrWs3ItdJsLjULk/7ptYnmanjRAdsBNc1e&#xA;2/lV+QHn1Lma81m3TSLeaJVj9d1eUgtU/uoy1OnRyuSw6+GIk8y6/tLsvJqoxiDwgG9/1f2Pa9H/&#xA;ACd8s2fF75pdRlHUOfTi/wCAQ1+9jlWbtfLL6fSx0vsxp8e87mfkPkP1s0sdN0+wh9GxtoraL+SJ&#xA;FQbeNAK5rZ5JTNyNu/w4IYxUIiI8giMg2uxV2KuxV2KuxV2KuxV2KuxVTuLa3uYjFcRJNE32o5FD&#xA;KfmDUYYyINg0wnCMhUgCPNjWpfll5MvqsbAW0h/btmaKnyUfB/wuZ2PtLNH+K/e6nP2BpMn8HCf6&#xA;O32cvsYtqX5HQmrabqbL/LFcoG+904/8QzOx9tH+KPydPn9kh/k5/wCmH6R+pi+o/lN5ytKmO3jv&#xA;EH7VvIpNP9V+DfcMzsfauGXM173T5/ZzVw5AS9x/XTGr/RdY08n69ZT21Nqyxsg+gkUzNhmhP6SC&#xA;6nNpcuL64yj7wgstcd2KuxV2KuxVh/5egM+rSjo84p47cj/xtmBov4j5vR+0GwxDuj+pmGZ7zjsV&#xA;diqrb2tzcyiK2heaU9I41LsfoFTkZSERZNM4Y5TNRBJ8mS6b+WXnO/oRYG2jP7dywip81Px/8LmF&#xA;k7Sww637nbYOwNXk/g4R/S2+zn9jKbD8jGkjI1TVOIYFWjtUqd/CST/mjNfl7a6Rj83d6b2UIIOS&#xA;fwA/Sf1I/wAu/wDOO/5V6KUc6WdUnQ1E2ouZ607GIBIT9MeaiWpmfJ62OCI83odjp9hp9strYW0V&#xA;pbJ9iCBFjjHyVAAMpJJ5toiByV8CXYq7FXYq7FXYq7FXYq7FXYq7FXYq7FXYq7FXYq7FXEAggioO&#xA;xBxVKL/yj5Yv6m60u2dj1kEao/8Awa8W/HMiGryw5SLg5uzdPk+qET8P0hj17+TvlC4qYBcWZ7CK&#xA;TkP+SokP45mQ7XzDnR/Hk6vL7MaWX08Ufcf12x+9/I2UVNlqqt4JNEV/4ZWP/Ecy4dtj+KPyLrMv&#xA;skf4MnzH4+5Ibz8oPOcFfSjgu/8AjDKB/wAnRHmXDtbCedj4fqt1uX2Z1ceQjL3H9dJJd+SfNtp/&#xA;faTc0HVkjMg+9OQzJhrcMuUg6/J2Vqoc8cvlf3ML/Knyxr2padfS2Gnz3Cm8dDIkbcQVVdi5AUfa&#xA;6VzG02fHjieIgbu57Z0ebNkgMcZSqHw6/B6jYfk95vuaG4WCyXv6sgZvuiEn68GTtfDHlcvx5tGH&#xA;2Z1U/q4Ye8/qtkun/kfZLQ6hqckviluix0/2TmSv/A5hZO2pfwx+btsPslAf3kyfcK++2T6d+Wfk&#xA;yxoRp63Eg/buWaWvzUnh/wALmDk7Szy/ir3O3wdg6TH/AAcR/pb/ALPsZHbWlpaxCK1hjgiHSOJQ&#xA;i/coAzDlMyNk27XHjjAVEADyVcizdirsVdirsVdirsVdirsVdirsVf/Z</xmpGImg:image>
               </rdf:li>
            </rdf:Alt>
         </xmp:Thumbnails>
         <xmpTPg:MaxPageSize rdf:parseType="Resource">
            <stDim:w>100.000000</stDim:w>
            <stDim:h>100.000001</stDim:h>
            <stDim:unit>Pixels</stDim:unit>
         </xmpTPg:MaxPageSize>
         <xmpTPg:NPages>1</xmpTPg:NPages>
         <xmpTPg:HasVisibleTransparency>False</xmpTPg:HasVisibleTransparency>
         <xmpTPg:HasVisibleOverprint>False</xmpTPg:HasVisibleOverprint>
         <xmpTPg:PlateNames>
            <rdf:Seq>
               <rdf:li>Cyan</rdf:li>
               <rdf:li>Magenta</rdf:li>
               <rdf:li>Yellow</rdf:li>
               <rdf:li>Black</rdf:li>
            </rdf:Seq>
         </xmpTPg:PlateNames>
         <xmpTPg:SwatchGroups>
            <rdf:Seq>
               <rdf:li rdf:parseType="Resource">
                  <xmpG:groupName>Default Swatch Group</xmpG:groupName>
                  <xmpG:groupType>0</xmpG:groupType>
               </rdf:li>
            </rdf:Seq>
         </xmpTPg:SwatchGroups>
         <dc:format>image/svg+xml</dc:format>
      </rdf:Description>
   </rdf:RDF>
</x:xmpmeta>
                                                                                                    
                                                                                                    
                                                                                                    
                                                                                                    
                                                                                                    
                                                                                                    
                                                                                                    
                                                                                                    
                                                                                                    
                                                                                                    
                                                                                                    
                                                                                                    
                                                                                                    
                                                                                                    
                                                                                                    
                                                                                                    
                                                                                                    
                                                                                                    
                                                                                                    
                                                                                                    
                           
<?xpacket end="w"?>
	</metadata>
<g>
	<g transform="translate(686.0 232.0) rotate(0.0 248.0 455.5) scale(1.178147268408551 1.1763520947073194)">
		<g>
			<defs>
				<rect id="SVGID_1_" x="-589.8" y="-204.7" width="100" height="100"/>
			</defs>
			<clipPath id="SVGID_2_">
				<use xlink:href="#SVGID_1_"  style="overflow:visible;"/>
			</clipPath>
			<g transform="translate(-0.0 -0.0)" class="st0">
				<g id="Layer_2-i0">
					<g id="box_4-i0">
						<path class="st1" d="M-582.3-154.1c0,10,1.4,31.7,1.4,31.7s4.4,1.9,17.7,5.2c11.8,3,21.3,4.4,23.4,4.7c0,0,0.1,0.1,0.8,0
							c1.8-0.4,9.5-1.9,17.5-4.1c1.1-0.3,4.6-1.2,6.9-2c0.4-0.1,0.8-0.2,1.1-0.4c11.4-3.6,14.9-5.6,14.9-5.6s1.1-16.7,1.1-30.3
							c0-13.6-1.1-32.5-1.1-32.5s-1.3-0.5-3.7-1.3c-0.2-0.1-1.4-0.4-3-0.9c-0.7-0.2-1.4-0.4-2.2-0.7c-0.7-0.2-1.4-0.4-2.1-0.6l0,0
							c-6.1-1.9-16-3.9-16-3.9l0,0c-9-1.9-14.6-2.6-14.6-2.6s-5.5,0.7-19.6,4.5c-13.8,3.7-21.2,7.6-21.2,7.6S-582.3-164-582.3-154.1
							z"/>
						<path class="st2" d="M-539.3-127.8l-0.4,15.3v0c0,0.1,0.2,0.2,0.4,0.2c0,0,0,0,0,0c0.2,0,0.4-0.1,0.4-0.2v-0.1
							c0.2-2.5,0.3-5.1,0.5-7.6l0.4-7.7c0.2-5.1,0.4-10.3,0.4-15.4c0-2.6,0-5.1-0.1-7.7c-0.1-2.6-0.1-5.1-0.2-7.7s-0.2-5.1-0.4-7.7
							c-0.2-2.6-0.3-5.1-0.5-7.7c0-0.1-0.2-0.2-0.4-0.2c0,0,0,0,0,0c-0.2,0-0.4,0.1-0.4,0.2l0.2,7.7l0.2,7.7
							c0.1,5.1,0.3,10.3,0.2,15.4c0,2.6-0.1,5.1-0.1,7.7L-539.3-127.8z"/>
						<path class="st2" d="M-520.3-150.6c0,11.8-0.9,31.9-1,34.1c2.3-0.6,4.6-1.3,6.9-2c0.2-3.8,1-22.4,1-33.5
							c0-10.1-0.7-24.2-0.9-29.2c2-0.6,4-1.2,5.9-1.9c1.4-0.5,2.8-1,4.2-1.5c1.4-0.5,2.8-1.1,4.1-1.6c0.2-0.1,0.2-0.2,0.1-0.3
							c0,0,0,0,0,0c-0.1-0.1-0.4-0.1-0.6-0.1l0,0c-1.4,0.5-2.7,1-4.2,1.5c-1.4,0.5-2.8,0.9-4.3,1.4c-2.9,0.9-5.8,1.8-8.8,2.7
							c-2.9,0.9-5.9,1.7-8.9,2.5c-1.5,0.4-3,0.8-4.5,1.2s-3,0.8-4.5,1.2c-0.2,0.1-0.3,0.2-0.2,0.3c0,0,0,0,0,0
							c0.1,0.1,0.3,0.2,0.5,0.1c1.6-0.3,3.1-0.7,4.7-1c1.6-0.4,3.1-0.7,4.6-1.1c1.7-0.4,3.4-0.9,5-1.3
							C-521-173.8-520.3-160.3-520.3-150.6z"/>
						<path class="st2" d="M-547.5-188.7c2.8,0.7,5.6,1.4,8.4,2c3.3,0.8,6.5,1.5,9.8,2.3l4.6,1.1l0.3,0.1c1.6,0.4,3.3,0.7,4.9,1.1
							l0,0c0.2,0,0.4,0,0.5-0.1c0.1-0.1,0-0.2-0.2-0.3c-1.5-0.4-3-0.8-4.6-1.2l-0.3-0.1l-4.9-1.2c-3.2-0.8-6.5-1.6-9.8-2.4
							c-2.5-0.6-4.9-1.2-7.4-1.8c-0.8-0.2-1.6-0.4-2.4-0.6l-4.9-1.1c-1.6-0.4-3.3-0.7-4.9-1.1c-0.2,0-0.4,0-0.5,0.1c0,0,0,0,0,0
							c-0.1,0.1,0,0.2,0.2,0.3c1.6,0.4,3.2,0.8,4.8,1.2l4.9,1.2L-547.5-188.7z"/>
						<path class="st2" d="M-579.5-184.3c0.3,0.1,0.6,0.2,0.9,0.4l0.3,0.1c0.2,0.1,0.4,0.2,0.6,0.2l0.4,0.1c0.2,0.1,0.4,0.1,0.6,0.2
							l0.4,0.1c0.2,0.1,0.4,0.1,0.6,0.2l0.5,0.1l0.4,0.1c0.4,0.1,0.9,0.3,1.3,0.4l0.1,0c0.8,0.2,1.7,0.5,2.5,0.7
							c0.7,0.2,1.5,0.4,2.2,0.6c2,0.6,10.4,2.6,11.8,2.9c1.5,0.3,2.9,0.6,4.4,1c1.6,0.3,3.2,0.6,4.8,0.9c1.1,0.2,2.2,0.4,3.3,0.5
							l0,0l0.6,0.1l1,0.1l0,0c0.2,0,0.4,0,0.5-0.2c0.1-0.1-0.1-0.2-0.3-0.3l0,0l-0.7-0.1c-1.4-0.2-2.7-0.5-4.1-0.8
							c-1.6-0.3-3.1-0.6-4.7-1c-1.2-0.3-2.5-0.6-3.8-0.9c-5.7-1.4-10.3-2.5-12-3l-2.5-0.6c-0.2-0.1-0.5-0.1-0.7-0.2
							c-0.6-0.2-1.2-0.3-1.8-0.5c-0.7-0.2-1.3-0.4-1.9-0.5c-1.5-0.4-2.9-0.9-4.3-1.3l0,0c0,0,0,0,0,0c-0.2-0.1-0.5,0-0.6,0.1
							C-579.7-184.5-579.7-184.3-579.5-184.3z"/>
						<polygon class="st2" points="-553.2,-138.1 -571,-142.8 -571,-142 -553.2,-137.3 						"/>
						<polygon class="st2" points="-568,-143.9 -575.8,-146 -575.8,-145.1 -568,-143.1 						"/>
						<polygon class="st2" points="-553.2,-140 -566.1,-143.4 -566.1,-142.6 -553.2,-139.2 						"/>
						<polygon class="st2" points="-570.1,-146.4 -575.8,-147.9 -575.8,-147 -570.1,-145.5 						"/>
						<polygon class="st2" points="-568.1,-145.8 -568.1,-145 -568.1,-145 -559.1,-142.6 -559.1,-143.5 						"/>
						<polygon class="st2" points="-557.1,-142.9 -557.1,-142.1 -553.2,-141 -553.2,-141.9 						"/>
						<path class="st2" d="M-554.6-167c1.6,0.4,3.3,0.7,4.8,0.7c0.7,0,1.2-0.3,1.3-0.6c0.1-0.2,0.1-0.5,0.1-0.7
							c0-2.5-2.2-3.6-10.4-5.6c-4.3-1.1-11.2-2.9-13-3.1c-0.1,0-0.2,0-0.2,0c-0.4,0-0.8,0-1.2,0c-0.6,0.1-1.1,0.3-1.3,0.6
							c-0.1,0.2-0.2,0.4-0.2,0.7c-0.3,1.8,0.4,2.6,3.5,3.5c8.8,2.6,15.5,4.2,15.5,4.2C-555.4-167.2-555-167.1-554.6-167z"/>
						<path class="st2" d="M-551.4-165.1c0.4,0,0.8-0.1,1.2-0.1c0.2,0,0.3-0.2,0.3-0.3c-0.1-0.1-0.3-0.2-0.5-0.2h0
							c-0.6,0.1-1.3,0.1-1.9,0c-0.7-0.1-1.3-0.2-1.9-0.3c-0.6-0.1-1.2-0.3-1.9-0.5c-0.6-0.2-1.3-0.3-1.9-0.5
							c-2.6-0.6-5.2-1.2-7.7-1.9c-1.2-0.3-2.5-0.7-3.7-1.1c-1.2-0.4-2.4-0.8-3.6-1.2c-1.1-0.4-2.2-0.9-2.6-1.5
							c-0.2-0.3-0.3-0.7-0.3-1c0-0.2,0-0.4,0-0.6c0-0.2,0.1-0.4,0.1-0.5l0,0c0.1-0.1-0.1-0.2-0.3-0.3c-0.2,0-0.4,0-0.5,0.2
							c-0.1,0.2-0.2,0.4-0.3,0.6c0,0.2-0.1,0.4-0.1,0.6c0,0.4,0,0.8,0.2,1.2c0.3,0.4,0.7,0.8,1.2,1.1c0.5,0.3,1.1,0.5,1.7,0.8
							c2.4,0.9,4.9,1.7,7.4,2.3c1.3,0.3,2.6,0.7,3.9,1c1.3,0.3,2.6,0.6,3.9,0.9c0.6,0.1,1.3,0.3,1.9,0.4c0.7,0.2,1.3,0.3,2,0.4
							c0.7,0.1,1.4,0.2,2.2,0.3C-552.2-165.1-551.8-165.1-551.4-165.1z"/>
						<path class="st2" d="M-544.7-181.6l-0.5,0c0,0,0,0,0,0c0.1,0.1,0.2,0.1,0.3,0.1c0.6-0.1,1.2-0.3,1.7-0.4
							c0.6-0.2,1.1-0.3,1.7-0.5c0.5-0.2,1.1-0.3,1.6-0.5c0.5-0.2,1.1-0.4,1.6-0.6c0.1,0,0.1-0.1,0.1-0.2c-0.1-0.1-0.2-0.1-0.3-0.1
							c-0.6,0.1-1.2,0.3-1.7,0.4c-0.6,0.2-1.1,0.3-1.7,0.5c-0.6,0.2-1.1,0.4-1.7,0.5c-0.5,0.2-1,0.3-1.5,0.5L-544.7-181.6
							C-544.6-181.7-544.6-181.7-544.7-181.6C-544.6-181.6-544.6-181.6-544.7-181.6L-544.7-181.6z"/>
						<path class="st2" d="M-546.1-183.1c0,0,0,0.1,0,0.1c0.1,0.1,0.2,0.1,0.3,0.1c0.6-0.1,1.2-0.3,1.8-0.4c0.6-0.2,1.1-0.3,1.7-0.5
							c0.6-0.2,1.1-0.3,1.7-0.5c0.5-0.2,1.1-0.4,1.6-0.6c0.1,0,0.1-0.1,0.1-0.2c0-0.1-0.2-0.1-0.3-0.1c-0.6,0.1-1.2,0.3-1.8,0.4
							c-0.6,0.2-1.1,0.3-1.7,0.5c-0.6,0.2-1.1,0.3-1.7,0.5c-0.5,0.2-0.9,0.3-1.4,0.5c0.1,0,0.2,0,0.3,0.1c0,0,0.1,0,0.1,0
							c0,0,0,0.1-0.1,0.1H-546.1z"/>
						<path class="st2" d="M-548.8-184.2h-0.5c0,0,0,0.1,0,0.1c0.1,0.1,0.2,0.1,0.4,0.1c0.6-0.1,1.2-0.3,1.8-0.4
							c0.6-0.2,1.1-0.3,1.7-0.5s1.1-0.3,1.7-0.5c0.6-0.2,1.1-0.4,1.6-0.6c0.1,0,0.1-0.1,0.1-0.2c0-0.1-0.2-0.1-0.3-0.1
							c-0.6,0.1-1.2,0.3-1.8,0.4c-0.6,0.2-1.2,0.3-1.7,0.5c-0.6,0.2-1.1,0.3-1.7,0.5c-0.5,0.2-0.9,0.3-1.4,0.5L-548.8-184.2
							C-548.8-184.3-548.8-184.3-548.8-184.2C-548.8-184.3-548.8-184.3-548.8-184.2C-548.8-184.2-548.8-184.2-548.8-184.2
							L-548.8-184.2z"/>
						<path class="st2" d="M-522.6-188.6C-522.6-188.6-522.6-188.6-522.6-188.6C-522.6-188.6-522.7-188.6-522.6-188.6l0-0.2
							c-0.3,0.1-0.7,0.2-1,0.3c-0.6,0.2-1.1,0.3-1.7,0.5c-0.6,0.2-1.1,0.3-1.7,0.5c-0.5,0.2-1.1,0.4-1.6,0.6l0,0
							c-0.1,0.1-0.2,0.1-0.1,0.2c0.1,0.1,0.2,0.1,0.3,0.1c0.6-0.1,1.2-0.3,1.7-0.4c0.6-0.2,1.1-0.3,1.7-0.5c0.5-0.2,1.1-0.3,1.6-0.5
							c0.5-0.2,1.1-0.4,1.6-0.6c0.1,0,0.1-0.1,0.1-0.2c0-0.1-0.2-0.1-0.3-0.1c-0.1,0-0.1,0-0.2,0l-0.4,0.3l0,0
							C-522.5-188.6-522.5-188.6-522.6-188.6L-522.6-188.6z"/>
						<path class="st2" d="M-526.2-189.1C-526.2-189.1-526.2-189.1-526.2-189.1c-0.1-0.1,0-0.2,0-0.3c-0.4,0.1-0.7,0.2-1.1,0.3
							c-0.6,0.2-1.1,0.3-1.7,0.5s-1.1,0.3-1.7,0.5c-0.6,0.2-1.1,0.4-1.6,0.6c-0.1,0.1-0.2,0.1-0.1,0.2c0.1,0.1,0.2,0.1,0.3,0.1
							c0.6-0.1,1.2-0.3,1.8-0.4c0.6-0.2,1.1-0.3,1.7-0.5s1.1-0.3,1.7-0.5c0.5-0.2,1.1-0.4,1.6-0.6c0.1,0,0.1-0.1,0.1-0.2
							c0-0.1-0.2-0.1-0.3-0.1l-0.1,0c-0.2,0.1-0.3,0.2-0.5,0.4l0,0C-526.1-189.1-526.1-189.1-526.2-189.1L-526.2-189.1z"/>
						<path class="st2" d="M-528.5-190.2C-528.5-190.2-528.5-190.2-528.5-190.2C-528.5-190.3-528.6-190.3-528.5-190.2
							c0-0.2,0-0.2,0-0.3c-0.5,0.1-1,0.3-1.6,0.4c-0.6,0.2-1.2,0.3-1.7,0.5c-0.6,0.2-1.1,0.3-1.7,0.5c-0.5,0.2-1.1,0.4-1.6,0.6
							c-0.1,0-0.1,0.1-0.1,0.2c0,0,0,0,0,0c0.1,0.1,0.2,0.1,0.3,0.1c0.6-0.1,1.2-0.3,1.8-0.4c0.6-0.2,1.1-0.3,1.7-0.5
							s1.1-0.3,1.7-0.5c0.6-0.2,1.1-0.4,1.6-0.6l0,0c0.1,0,0.1-0.1,0.1-0.2c0,0,0,0,0,0l-0.4,0.3l0,0
							C-528.4-190.2-528.4-190.2-528.5-190.2L-528.5-190.2z"/>
					</g>
				</g>
			</g>
		</g>
	</g>
</g>
</svg>
