<?xml version="1.0" encoding="utf-8"?>
<!-- Generator: Adobe Illustrator 25.2.1, SVG Export Plug-In . SVG Version: 6.00 Build 0)  -->
<svg version="1.1" id="Layer_1" xmlns="http://www.w3.org/2000/svg" xmlns:xlink="http://www.w3.org/1999/xlink" x="0px" y="0px"
	 viewBox="0 0 100 62.4" style="enable-background:new 0 0 100 62.4;" xml:space="preserve">
<style type="text/css">
	.st0{fill:#FFB400;}
	.st1{fill:#F04E23;}
	.st2{fill:#04294F;}
	.st3{fill:#00AEE0;}
	.st4{fill:#FFFFFF;}
</style>
<metadata><?xpacket begin="﻿" id="W5M0MpCehiHzreSzNTczkc9d"?>
<x:xmpmeta xmlns:x="adobe:ns:meta/" x:xmptk="Adobe XMP Core 6.0-c004 79.164570, 2020/11/18-15:51:46        ">
   <rdf:RDF xmlns:rdf="http://www.w3.org/1999/02/22-rdf-syntax-ns#">
      <rdf:Description rdf:about=""
            xmlns:xmp="http://ns.adobe.com/xap/1.0/"
            xmlns:xmpGImg="http://ns.adobe.com/xap/1.0/g/img/"
            xmlns:xmpTPg="http://ns.adobe.com/xap/1.0/t/pg/"
            xmlns:stDim="http://ns.adobe.com/xap/1.0/sType/Dimensions#"
            xmlns:xmpG="http://ns.adobe.com/xap/1.0/g/"
            xmlns:dc="http://purl.org/dc/elements/1.1/">
         <xmp:CreatorTool>Adobe Illustrator 25.2 (Windows)</xmp:CreatorTool>
         <xmp:CreateDate>2021-04-18T04:30:30+10:00</xmp:CreateDate>
         <xmp:Thumbnails>
            <rdf:Alt>
               <rdf:li rdf:parseType="Resource">
                  <xmpGImg:width>256</xmpGImg:width>
                  <xmpGImg:height>160</xmpGImg:height>
                  <xmpGImg:format>JPEG</xmpGImg:format>
                  <xmpGImg:image>/9j/4AAQSkZJRgABAgEASABIAAD/7QAsUGhvdG9zaG9wIDMuMAA4QklNA+0AAAAAABAASAAAAAEA&#xA;AQBIAAAAAQAB/+4ADkFkb2JlAGTAAAAAAf/bAIQABgQEBAUEBgUFBgkGBQYJCwgGBggLDAoKCwoK&#xA;DBAMDAwMDAwQDA4PEA8ODBMTFBQTExwbGxscHx8fHx8fHx8fHwEHBwcNDA0YEBAYGhURFRofHx8f&#xA;Hx8fHx8fHx8fHx8fHx8fHx8fHx8fHx8fHx8fHx8fHx8fHx8fHx8fHx8fHx8f/8AAEQgAoAEAAwER&#xA;AAIRAQMRAf/EAaIAAAAHAQEBAQEAAAAAAAAAAAQFAwIGAQAHCAkKCwEAAgIDAQEBAQEAAAAAAAAA&#xA;AQACAwQFBgcICQoLEAACAQMDAgQCBgcDBAIGAnMBAgMRBAAFIRIxQVEGE2EicYEUMpGhBxWxQiPB&#xA;UtHhMxZi8CRygvElQzRTkqKyY3PCNUQnk6OzNhdUZHTD0uIIJoMJChgZhJRFRqS0VtNVKBry4/PE&#xA;1OT0ZXWFlaW1xdXl9WZ2hpamtsbW5vY3R1dnd4eXp7fH1+f3OEhYaHiImKi4yNjo+Ck5SVlpeYmZ&#xA;qbnJ2en5KjpKWmp6ipqqusra6voRAAICAQIDBQUEBQYECAMDbQEAAhEDBCESMUEFURNhIgZxgZEy&#xA;obHwFMHR4SNCFVJicvEzJDRDghaSUyWiY7LCB3PSNeJEgxdUkwgJChgZJjZFGidkdFU38qOzwygp&#xA;0+PzhJSktMTU5PRldYWVpbXF1eX1RlZmdoaWprbG1ub2R1dnd4eXp7fH1+f3OEhYaHiImKi4yNjo&#xA;+DlJWWl5iZmpucnZ6fkqOkpaanqKmqq6ytrq+v/aAAwDAQACEQMRAD8A9U4q7FXYq7FXYq7FXYq7&#xA;FXYq7FXYq7FXYq7FXYq7FXYq7FUB+n9D4Bxf27KRUMkisCP9iTmBl7U0uMkSyQBHSw5ENLlkLETX&#xA;uUX81eX063in/VV2/UpzEn7RaGPPIPlI/cG0dnZz/D9yHfzroK9JHf8A1UP8aZjT9qtEORkf80/p&#xA;ptHZOc9B80O/n3SR9iGdvfigH/EsxZ+2OlHKMz8B/wAU2jsbL1Mft/Uh3/MGAfYsmb/WcL+oHMaf&#xA;tpDpjJ/zq/QW0diy6y+xQf8AMG4P2LNF/wBZy36guY0/bSf8OMD/ADr/AEBsHYsesvsQ7+fdWOyQ&#xA;wL78WJ/4lmLP2x1R5RgPgf8Aim0djYupl9n6kO/nXXm6SIn+qg/jXMaftVrTyMR/mj9Nto7KwDof&#xA;mh381a+/W8Yf6qov6gMxZ+0OulzyH5AfcG0dnYB/D96HfXNZf7V7PTuBIwG/yOY0+1tXLnln/pi2&#xA;DSYh/DH5IW41GdYnluLpxFGpeR5HPEKoqSST0Ayjx82QgcUpE+ZLZ4cIi6AASz/nHrzkfMnmvzpM&#xA;rMbMCxFgrDpFH66k+Pxk8qZ7B2b2X+S0sIH6zZl/WP6uXweLz6zx80pD6enu/G73HMxg7FXYq7FX&#xA;Yq7FXYq7FXYq7FXYq7FXYq7FXYq7FXYq7FXYq7FXyR5N89Jo/m3WfKOsTenbQ6hdQ6fPJ8KxMkzK&#xA;YW5fZU0+HwO2c37W+zxzxGpwi5geoDnId/vH3e5zexu0xjkcWQ+m9j3eXu/S9Wzy5692KuxV2Kux&#xA;V2KuxV2KqV1dW1pbyXN1KkFvEpaWWQhVVR3JOTxYpZJCMAZSPIDmwnMRFyNAPCvzO/NRtbD6PorM&#xA;mk1pcXH2WuKHoB1WP8TnrHsz7K/lazZ983QdI/rl9zxva3bHjfu8f0dT3/sZf/ziDdBfOOt2u1Zd&#xA;OEoHf91Oi/8AM3Or1g9IdVpDuX1Zmuc52KuxV2KuxV2KuxV2KuxV2KuxV2KuxV2KuxV2KuxV2Kux&#xA;V2Kvgn84LUWv5o+aIgAOWozy7V/3c5l7/wCvm4wn0D3Oqyj1FNPJf5x6xoiJZaoralpy7IxNJ4wO&#xA;ysdnHs335ynbXsfg1ZOTEfDyn/Sn3jofMfEF3Gg7cyYRwz9cPtD17QfzB8o64qiz1CNZ2/49pz6U&#xA;tfAK9OX+xrnnGv8AZ3W6UnjgTH+dH1D7OXxp6nTdqYM30y37jsfx7mR5pHYOxV2KuxVCajq+laZC&#xA;ZtQu4bSMCvKZ1Svyqd8yNNo82c1ihKZ8hbVlzwxi5kR97APMX55eXLFXi0iJ9TuRUCShigB8eTDk&#xA;30Lv451/Z3sNqcpvORij3fVL7Nh8/g6TVe0OKG2McZ+QeR+aPPHmPzLLy1K5/wBHU1jtIvghX/Y9&#xA;z7sSc9F7L7E02iFYo+rrI7yPx/QKDy+r7Qy6g+s7d3RIM2zhPZ/+cUxcxfmQ8wUi2msZ7Z5CaAsS&#xA;koUfzH91Wma/XZ4R4YE+qR2DsNFpskhLIB6I8z731/mE5LsVdirsVdirsVdirsVdirsVdirsVdir&#xA;sVdirsVdirsVdirsVfGn/OSvlPVdO/MvUdWaEtp2qJDcwTL8QFIlicPt8J9SNqe1Mz9NqYbY79fc&#xA;4ufSZeE5REnHdX3Hz7nkmZzgOxVNdO81eZdNAFjql1botKRpK/Dbp8BPH8MwdR2ZpsxvJjhI95iL&#xA;+fNyMWry4/plIfFOovza/MKIcV1diP8ALhgc/e0ZOaufsn2dI2cX+ykPuk5ke2dUP4/sH6lSX84f&#xA;zCkNV1MRilOKQQU/4ZGOQHsh2aP8n/sp/wDFMj23qv5/2R/Ult7+YPna8XjPrN1xPURuYgfn6fDM&#xA;7D2Bocf04YfEX99uPk7S1E+c5fOvuSGaaaaQyTO0kjfadyWY/MnNrGIiKAoOESSbKzJIXIjyOERS&#xA;7saKqipJ9gMBIAssoxJNDcsu0D8v7q4ZZ9UrbwbEW4/vG/1v5R+Pyzntf2/CHpxeqXf0H6/uev7K&#xA;9k8mWp5/RD+b/Ef+J+/yD0nQ5zolzaXGnIsJsnWSFFFFqprQ+Ne+cmdTM5PEJuVvfDQ4hh8GMeHH&#xA;VUPxz831Hpeo2+pabbahbmsN1GsqeIDCtD7joc67HkE4iQ5F8uz4ZYpmEucTSKybU7FXYq7FXYq7&#xA;FXYq7FXYq7FXYq7FXYq7FXYqhptU02Daa6ijPgzqD91cxMvaGnx/VkgP84N0NPklyiT8EM3mXQlr&#xA;W9j28Kn9QzDl29oh/lIto0GY/wAJbXzFobGgvYvpNP15KPbejP8AlY/NTocw/hKMgvLS4/uJ45f9&#xA;Rlb9RzOxarFk+iUZe4g/c0TxTj9QIeN/np6Ta9YId3+qfGpoRxMjAbffmm7XNZI99fpe09l43gnf&#xA;Li/QHieq+RNFvS0kKmzmO/KL7BPuh2+6mS0vbufFtL1x8+fz/XbPX+yulz2Yfu5f0eX+l/VTF778&#xA;vNbgqbZo7pB04ng33Nt+Ob7B7QYJ/VcD8/u/U8rqvZHV4/o4cg8jR+R/WUluNA1u3NJbGZfcIzD7&#xA;1qM2ePXYJ/TOPzdJm7L1OP6scx/mmvnyQUkUsbcZEZG60YEGn05kgg8nBII5tAEkACpOwAwqiY9L&#xA;1OX+7tJn7fDG5/UMpnqMcPqkB7y34tJlyfRCUvcCUztvJPmSdqfVfRX+aVlUfdUt+GYOXtnTQ/iv&#xA;3b/sdpp/ZzW5f4OEf0qH7fsT/T/y0UFWv7vl05RQin0c2/5pzU6j2k6Y4/GX6h+t6DSexfXNP4R/&#xA;Wf1Mq03Q9K01aWdusbdDJ9pz82NTmg1OvzZ/rlY7unyet0XZWn0o/dwAPfzPzR2YbsXYq9n/ACS1&#xA;36xpV1o0rVksn9WAH/fUp+ID/Vff/ZZ0HZGa4mB6PD+0+k4ckco5S2PvH7Puel5uHlnYq7FXYq7F&#xA;XYq7FXYq0zKqlmIVR1J2GKQLQM/mDQYK+vqVrFTc85419u7ZUc8BzkPm3x0eaXKEj8Cof4u8p/8A&#xA;V6sP+kqH/mrI/msX86PzDZ/J2o/1Of8ApT+pfH5o8symkWr2TnwW4iPX5NhGoxnlKPzDGWgzjnjn&#xA;/pSqXevaRawetJdIyn7IjYOzfILXMXW9qafTR4skh7uZPwRi0eWZoRLF9Q8+XTkrYQiFO0knxP8A&#xA;d9kfjnG632wyS2wx4R3y3Py5D7Xc4OxojeZv3JBd6tqV4T9ZuZJAf2SxC/8AAjbOZ1PaOoz/AN5O&#xA;Uvjt8uTs8Wmxw+mICEzCb3Yq7FXAkGo2I6HEGkMd862k9ykeoM7SvCoik5EsQlSVpXsCfxzoOy9f&#xA;KUuCZJ7r+5z+zpxjcAKvdiGb127sVdirsVdirsVdirsVdirsVdirJ/y41r9E+b7GVm4wXDfVZ/Dj&#xA;N8Ir7B+LfRmZoMvBlB6Hb5uq7a03jaaQ6j1D4fst9F51j5m7FXYq7FXYqgdW1zSNItvrOpXUdrF2&#xA;LndqdlUVZj7AZXlzQxi5GnI0+lyZpcOOJkXneufnhaxlo9FsTMRsLi5PFPojX4iPmwzU5u1wNoC/&#xA;e9LpfZaR3yyryj+v+1hOp/mb50vywbUWtoz0jtgIafJl+P8A4bNdk7QzS/ir3O9wdh6XH/BxH+lv&#xA;+z7GOXV7e3b87q4knf8AmldnP3sTmJKZlzNuzhijAVEAe5QyLY7FXYqyHydd+neyWxPwzLyUf5Sf&#xA;2E5pu2cN4xP+afvcDXwuIl3Mwzm3UuxVLbTzDpVyePq+lJ0KS/Aa/P7P45m5ezs0N6seW7kT0s49&#xA;L9yYqysAykMp6EbjMIgjm45C1poVcIzqHbZVJAJ+QyQhIi62SImrX5FCyaKOaJ4pBVJFKsPY7ZKE&#xA;zEgjmExkQbDzi9tXtLuW3f7UTFa+I7H6RnbYMoyQEh1ehxzEogjqoZazdirsVdirsVdirsVdirsV&#xA;dirYJUhlNCNwR1BxQQ+n/LeqjVtAsNRBq1zAjSU7SUo4+hwRnZafJxwEu8PlOtweDmlD+afs6fYm&#xA;WXOK7FXYq8287/m5bae0mn6DxubxarLeH4ooz0og/bYf8D881Gs7TEfTDc971HZfs9LJU83pj3dT&#xA;7+77/c8f1DUr/Ubprq+uHubh/tSSEk/IeA9hmhnklM3I2XtMOCGKPDACIQ2QbXYq7FXYq7FXYqi9&#xA;KuPq+pW0taBZF5H/ACSaH8DmPq8fHikPJqzx4oEeT0bOKefdirzvWYfR1W6jGwEhIHs3xD9edpop&#xA;8WGJ8nf6eVwB8kGrMv2SR8tsyCAW2l0MskMqSxni8ZDKfcb4JwEgQeRRKIIovR7K6S6tIrhPsyqG&#xA;p4HuPoOcTnxHHMxPR5/JAxkQeivlTBifnOz4zQ3ijZx6cnzG6/h+rOh7FzXEwPTd2nZ+TYxY1m8d&#xA;i7FXYq7FWXeTvy21rzGouSfqWmVp9bkUkvTY+mm3L51A98z9LoJ5d+Ue903aXbWLTen6p936z0em&#xA;af8Ak75NtowLmOa+fu8srJv7CL09s28OysI52fx5PLZvaTVSPpIj7h+u1S8/KHyRPGUitpbRu0kM&#xA;0hb/AJKmQfhkpdl4TyFfH9bDH7RauJskS94H6Kee+b/ym1fRYpL3T3/SGnxgtJQcZo1Hdk35AeK/&#xA;cBmq1XZk8YuPqj9r0nZ3tBizkQmOCf2H8efzYHmsehdirsVe4/krqX1jyvNZMatY3DBR4RyjmP8A&#xA;huWdJ2TkvGR3F4H2mwcOoE/50ftG33U9BzaPOOxV5B+aH5kPM82g6NLSBapfXaHdz0aJCP2ezHv0&#xA;6ddD2jr7uEOXU/oe07C7FAAzZRv/AAju8z+h5ZmletdirsVdirsVdirsVdirfTcYoemQSepBHJ/O&#xA;ob7xXOEyR4ZEdxeckKJCpkUMH82R8dZdv9+Ijfhx/wCNc6vsmV4B5Eu50RvGk2bJzHYqy7ybeF7e&#xA;a1Y7xEOn+q3X8R+Oc721hqQmOuzqtfjoiXeyPNI69LfMNr9Y0idQKtGPUX/Ybn8K5m9nZeDNHz2+&#xA;bkaWfDkDAM7B3rsVdirK/wAuPKI8x66EuFJ06zAluyNuW9EjqP5z+AOZ2g0viz3+kc3T9tdo/lsN&#xA;x+uWw/Sfh99PoP8A0a0tv2ILaBPZEREH0BVUDOqjHkAHzbJk5ykfMk/e871386NPtrhoNJtDeqho&#xA;bmRvTQkfyLQsR7mmbvB2NKQuZ4fJ5PWe1WOEuHFHj8zsPh+AhtJ/O2J5kj1XT/SjNA1xbvy4+/ps&#xA;On+y+/J5exDVwl82nTe1oJAywod4P6P2vSrG+tL+0ivLOVZ7aZeUUq9CP8+ozSTgYExkKIeuw5o5&#xA;IicDcS8W/NvybDpF+mrWMfCxv2IljX7Mc/2jTwDipA9j7ZzPaekEJccfpl976D7PdpHNA45n1w5e&#xA;Y/Y89zVPSOxV6V+Rt/6euahYk0FzbiUe7QvQfhIc2/Y86mY94+55b2pxXijP+bKvmP2PaM6F4dgv&#xA;5q+c20TShp9nJx1O/UgMp+KKHoz+xb7K/Se2a3tLV+HHhH1S+56DsDs3x8nHIfu4fae79bwfOZfQ&#xA;XYq7FXYq7FXYq7FXYq7FXYq9H0sk6ZaE9TDHX/gBnE6r+9n/AFj97z2b65e8orKGthnnID9KR+8K&#xA;1/4Ns6bsX+6P9b9AdvoPoPvSHNu5zsVTfyvcejrEQ/ZmDRn6RUfiBmu7Vx8WA+W7iayN4z5M6zk3&#xA;StOiujI26sCCPY4QaNhQaeZTRmKZ4m+1GxU/MGmd1CXFEHvejibFrMkydir3L8lbBIPKst3QereX&#xA;LksOvCMBFU/I8j9OdJ2TCsV95eB9psxlqBHpGP3/AICn+c+tXFpo9ppsLFBqDuZ2HeOHieP+yZx9&#xA;2db2NhEpmR/h/S+Ze1WrlDFHGP4zv7h0+141nSvAuxV6d+Sms3Avb3RnJa3eP61ED0V1ZUan+sGH&#xA;3Zo+2sI4RPryew9k9VLjlhP01xD7vt/QzX8ydPS98lamhFWhjFwh7gwsHNP9iCM5HXw4sMvn8n03&#xA;sXN4eqge8189nznnJvpjsVZX+V139W88aaSaLKZIW9+cbAf8NTM7s6VZoun7dx8Wkn5UfkX0JNNF&#xA;BC80rBIolLyOegVRUk/IZ1JIAsvnEYmRAHMvmbzVr02u67d6lITxlciBD+xEuyL93X3zj9TmOSZk&#xA;+p6DSDT4Y4x05+/qlOUOY7FXYq7FXYq7FXYq7FXYq7FXo+lgjTLQHqIYwf8AgBnE6o/vZf1j97z2&#xA;b6z7yisoa2GeciP0pH7QrX/g2zpuxf7o/wBb9AdvoPoPvSHNu5zsVV7GUxXsEo/YkVvuIOVZ4cUJ&#xA;DvBYZI3EjyelZw7zrsVee67H6er3a+Mhb/gvi/jnZaCV4Yny+532mN4x7kBmW3uxV7p+S16k/lJ7&#xA;eo52lzIpXvxcBwT8ySPozpOyZ3iruLwHtNiMdSJfzoj9SG/OrSJ7jSrLU4gWSykeOcDss3GjH2DI&#xA;B9Odd2LmAmYn+L9D5j7V6YyxRyD+Am/jX6R9rx3OkeDdir0v8lNIuG1K91ZlItoovqyMR9qR2VzQ&#xA;/wCSq7/MZpO2sw4RDrdvXeyemkcksv8ACBw/E0fs/Szr8x79bLyVqsjHeWL0FHiZiI9voYnOR18+&#xA;HDL3V8307sXFx6qA7jfy3fOOck+muxVNPK9x9W8yaVPWgju4GPyEi1/DLtPKskT5hxNdDiwTHfGX&#xA;3Pavzb1k6d5RmgRqTag62y0O/A/FJ9HFeP050XaeXgxEdZbPC+z2m8TUgnlDf9X6/g8Bzl30V2Ku&#xA;xV2KuxV2KuxV2KuxV2KtgEmg6npih6bDH6cKRj9hQv3CmcJOXFInveckbNr8ihg/myTlrLr/AL7R&#xA;F/Dl/wAbZ1fZMawDzJdzohWNJs2TmOxV2KvT42LIrHqQCc4OQovNHmuwKwTzSoGtznxCE/8AAAZ1&#xA;vZR/cR+P3u70f92EpzYOU7FWYfln5uTy9rhW6bjpt8BFcn+Qg/BJ/sSTX2JzP7P1XhT3+k83S9t9&#xA;nHU4fT9cdx+kPfpI7e6tmjkVZredCGU0ZHRh9xBGdVGVEEPm+TGCDGQ25EPMdd/JVZJ3m0S8WFGN&#xA;Ra3IYqtewkXk1Pmv05vcHbVCsgvzH6njtZ7KWScMqHdL9f7EPpP5JXZmVtW1CNYgfijtQzMw8Ocg&#xA;Xj/wJyeXtsV6I7+bVpvZKV/vZiv6P6zX3PUdN02x0yyisbGIQWsIpHGv3kkncknqTmhyZJTkZSNk&#xA;vY4NPDDAQgKiHj35wecIdSvY9EsnD2tk5e5kU1DT0K8R7RgkfM+2c32pqhM8EeQ+99A9nOzjiics&#xA;/qly937Xm+ah6d2KqlvKYZ45RWsbK4oaH4TXrhiaNsZx4gR3vR/zx1Iy61YaepqlrAZWH+XM1Kf8&#xA;DGPvzb9sZLmI9w+95j2Ww1ilP+dKvl/a80zTvUuxV2KuxV2KuxV2KuxV2KuxVGaRCJtTtYz0Mik/&#xA;JTU/qzG1k+HFI+TTnlUCfJ6LnFugdirzvWZvW1W6kG4MhAPsvwj9WdpoocOGI8nf6eNQA8kFmS3O&#xA;xV2KvToRSFB/kj9WcJP6i83LmvyKGC+af+O1N/qp/wARGdZ2V/cD4/e7rRf3YSjNi5bsVdirNfJn&#xA;5oat5fjWyuE+vaYv2YWNJIx/xW++3+Sfopmx0naMsWx3i6LtLsLHqTxx9GTv6H3/AK/vemWH5teS&#xA;LqINJePaSHrFPE/IfSgdP+GzcQ7TwyHOnlsvs/q4HaPF7iP00VS6/NXyNBGWGoes1KiOKKUsfvUL&#xA;95wy7Swj+L72EOwNXI/RXvI/W8/83fnBqOpwvZaPG2n2j7POx/0h18Bx2j+gk++avVdqSmKh6R9r&#xA;0nZ3s5DERLKeOXd/D+38bPOs1L0qD1TVrHS7U3N5JwToqjdmPgo7nMnS6TJnnwwG/wBzha7X4tLj&#xA;48hofafIMA1b8wNWunK2VLODtSjSH5sen0Z1+k7Aw4xc/XL7Pl+t887Q9rNRlNYv3cP9l8/1K/5e&#xA;2Gt+bfPOkaIb24Zb24X6ywleogjrJMRv2jRqZsJ6XDCJPBH5B0sdfqZy3yT/ANMf1vbfzNvPrXnj&#xA;U2rVYnSFR4enGqn/AIYHOE7QlxZpPqnYePg0kPPf5li2YTtnYq7FXYq7FXYq7FXYq7FXYqqQzSQz&#xA;JNGeMkZDKfcZGcBKJieRYyiCKLK7PzlasgF3E0clN2T4lP8AEZz2bsaYPoNjzdXk0Eh9JXXfnCwW&#xA;FvqyvJMR8FRRQfE5HD2PkMvVQiiGgle/Jh5JJJO5O5OdKA7ZrFLsVdirKNM83RR26Q3kbFkAUSpQ&#xA;1A23BIzQ6nscykZQI36F1mbQkm4lFS+ctOVCYo5XfspAUfSanMeHY2UncgBrjoJ9SGKXt3Ld3Ulz&#xA;L9uQ1IHQDoB9AzocGEY4CI5B2mOAhEAKGWs3Yq7FXYq7FXYq7FVO5uYba3kuJm4xRKXdvAAVyzHj&#xA;lOQjHmWrNmjigZyNRiLLyDXdaudXv3uZiRGCRBFXZE7D5+Jz0XQ6KOnxiMefU95fHO1O0smsymcu&#xA;X8I7h+OaXZmOtfQv/OIvlX19X1jzRMlY7OJbG0Yjb1ZjzlIPiqKo+TZhayewDmaWO5Kp5rmM3mfV&#xA;5T+3eXBA8B6rUGefak3kkf6RfYtBHh0+Mf0I/clWUOY7FXYq7FXYq7FXYq7FXYq7FXYq7FXYq7FX&#xA;Yq7FXYq7FXYq7FXYq7FXYq7FXYq7FXYqxL8x794dLgtENDdSEv7pHQkf8EVzofZ3AJZTM/wj7T+C&#xA;8f7Y6ow08cY/ykt/dH9pDzjO0fNXYq+5/wAifKv+G/yx0e2dOF3ex/pC77H1LmjqD7rFwU/LNRqJ&#xA;8Uy7TBGoh4xrBLavfMxqTcSkk9SeZzhcv1n3l9f0w/dR/qj7kHlbe7FXYq7FXYq7FXYq7FXYq7FX&#xA;Yq7FXYq7FXYq7FXYq7FXYq7FXYq7FXYq7FXYq7FXYqwL8zq+tp/hxl/Wudb7M/TP4fpfP/bb6sXu&#xA;l+hhGdQ8KyT8uPK7eafPOjaFxLRXdyv1mnUW8f7yY/8AItGyvLPhiSzxx4pAP0BVVVQqgBQKADYA&#xA;DNM7Z8s6pLbT6jc3Vo4ls7mWSa0nU1WSJ3JRgfcZx+qxShklGQrd9U7Pzxy4ISiQRwjl7kJmO5rs&#xA;VdirsVdirsVdirsVdirsVdirsVdirsVdirsVdirsVdirsVdirsVdirsVdirsVdirF/zB0x7vR1uY&#xA;xyezYuw7+mwo33UBze9gakY83CeU/v6PK+1uhOXTDJHnjN/5p5/oLzPO4fL30L/ziL5V9fV9Y80T&#xA;JWOziWxtGI29WY85SD4qiqPk2YWsnsA5mljuS+oc17mvz1i1rXfLl/d2FpcPHFBPJHJbShZE5I3F&#xA;qowKhvhpyWh982mfS4s8fXEFwtLrs2mleKRj+Oo5JgfzK1z/AJZ7Uf7CT/qpmsl7P6Y8uIfH9bvM&#xA;ftdrI8+CXvH6iFaH8y9RAHrWcLmu5Qsm30l8qPs3g6Sl9n6m8e2eq6wx/KX/ABSt/wArOkof9xwr&#xA;+yfVO3z+DKpezUOkz8m+Ptrl644/M/tVI/zOjLfvNOKr4rKGNfkUX9eVH2Z/2z/Y/wDHm8e2/wDt&#xA;X+z/AOOq6/mXpvH4rSYN4AqRT51GQPs1LpMfL9rZH22h1xH/AE37FQfmVo/Le2uOPjRK/dzyo+ze&#xA;bpKP2/qciPtpp+sJ/Z+tVj/MXQHryS4jp05Iu/8AwLNkD7Oajvh8z+psHtlpP5uT5R/4pWXz/wCW&#xA;ytTLIpr0MbV/CuRPs9qB/N+f7GyPtfoz/PHw/au/x55ap/vQ3y9N/wCmVnsHUjoPmG2PtXoj/FIf&#xA;5pXL558sEVN2V9jFL/BTkD2Hqv5v2x/W2D2o0B/jr/Nl+pUj85+WZCQt8opv8SSL/wASUYD2Lqh/&#xA;B9sf1sh7TaA/5T/Yy/4lU/xb5c/5b4/x/pg/kbVfzPtH62X+iTQ/6p9kv1Ll80eXmFRqENPdqH7j&#xA;kT2RqR/AfsZD2h0J/wAoPt/U3/iby/8A9XCD/gxg/knU/wAwp/0QaL/VI/b+p3+JvL//AFcIP+DG&#xA;P8k6n+YV/wBEGi/1SP2/qd/iby//ANXCD/gxj/JOp/mFf9EGi/1SP2/qd/iby/8A9XCD/gxj/JOp&#xA;/mFf9EGi/wBUj9v6nf4m8v8A/Vwg/wCDGP8AJOp/mFf9EGi/1SP2/qWHzZ5cBp9fj/H+mS/kbVfz&#xA;PtH62B9pND/qg+Uv1NN5u8tqpJv46AV2DE/cBh/kbVfzPtH60f6JND/qn2S/Uo/448r/APLb/wAk&#xA;pv8AmjD/ACJq/wCZ9sf1sf8ARPoP9U/2M/8AiVn+PPLP/LQ3/It/6ZP+QtV/N+0MP9FWh/nn/Sy/&#xA;UtPn7y2BUSyE+Ajav45YPZ/U/wBH5tJ9rtGP5/y/aoyfmNoCU4pcSV/lRdv+CZcmPZzUd8Pmf1NR&#xA;9stJ/NyfKP8AxSg35l6VX4bWcj34Db/gjlsfZvL1lH7Wmftpg6QmfkP1qEv5mwD+6sGb/WkC7fQr&#xA;ZaPZk9cn+x/a48vbYdMX+y/46hn/ADNuyPgsYwe1XY/wGXx9msfWcvs/a4s/bXMfpxxHvJP6kFN+&#xA;YmuSAr6duqEUK8GIIPjyY5kQ9n9PE3cj8f1Bw8vtdq5iqgPh+sljDtyYtQCpJoNgK+GbwCnlybNv&#xA;un8j/Kv+Gvyy0azkThd3UX168qKN6tz+8ow8UQqn0Zqc8+KZdnhjwxDPMpbXx1/zkh+Wl55d833H&#xA;mG0hZtC1yQz+soqsV29Wmic9ubVdfmQPs5s9Nl4o11DrtRjo30Lx7Mpx3Yq7FXYq7FXYq7FXYq7F&#xA;XYq7FXYq7FXYq7FXYq7FXYq7FXYq7FXYq7FXYq7FXYq7FXYqyf8ALPysfNPnzRdDK8oLm5U3Q/5d&#xA;4qyzf8k0amV5Z8MSWzHHikA+/wAAAAAUA2AGaZ2rsVQuq6VpurafPp2p20d5Y3K8J7eZQyMPcHw6&#xA;g9sIJBsIIB2LwzzL/wA4jeWry4efy/rE+lIxJFpPGLuNf8lG5RSAf6xY5lx1hHMW40tKOhYzcf8A&#xA;OH3mBa/V/MVpJt8PqQSR1bwNDJt75Z+dHc1/lD3pdN/ziL+YIYejqukutNy8lyhr8hA+S/OR7ij8&#xA;rLvCXTf84rfmnGoKfo+Uk04pcEEe/wAaLh/NwY/lpIKb/nGX83Y2YLpsEoHRkuoADt25Mp+/Jfmo&#xA;d6Py00DN/wA48fnHEoZ/LrEE0+C5s3P3JMxw/mYd6Py8+5CTfkX+bULBX8tXRJFfgMbj70dsP5iH&#xA;ejwZ9yEk/J/80Y3KN5X1EkdSsDsPvUEYfGh3o8KXchW/LD8yVYqfKmsVU0NLC5I28CEocPiw7wvh&#xA;y7ihn8h+eUco/l3U1dTRlNncAg+4KYfEj3hHBLuUJfKXmqFuE2jX0b0rxe2mU0+RXDxjvRwnuU28&#xA;t+YlUs2lXgUCpJglAAH+xx4h3rwlDfozUv8Alkm/5Ft/TDYRRd+jNS/5ZJv+Rbf0xsLRd+jNS/5Z&#xA;Jv8AkW39MbC0XfozUv8Alkm/5Ft/TGwtF36M1L/lkm/5Ft/TGwtF36M1L/lkm/5Ft/TGwtFEJ5c8&#xA;wyIHj0u7dG3VlglIPyIXBxDvTwlfH5V80SOEj0e+d26KttMSfoC48Y714T3IlfIfnh2CJ5d1NmY0&#xA;VRZ3BJJ6ADhg8SPeE8Eu5FR/lf8AmVI4RfKmrgnoWsblR97IBg8WHeE+HLuKMh/Jr805q8PLF+ON&#xA;K84inXw58a4PHh3p8GXcjoPyA/N+cqE8uTDmKj1JraPtXfnKtPpyP5iHenwJ9yY23/OM/wCb83H1&#xA;NKht61r6t3bmlPH03k6+2A6qHekaefcmtr/zif8AmbNQy3Gl221SJJ5Sfl+7hfInWQ82Q0sk6tP+&#xA;cP8AzI3+9fmCzh/4xRSy/L7XpZA60dzIaQ96fWP/ADh5o6EfXvMtxOO/oWyQ9/8AKkmyB1p6BmNI&#xA;O96T+Xv5I+R/It42oaUlxc6m0Zi+u3cnNwjEFlVUWOMVoN+NffKMmeU9i3Y8MY8mfZS2uxV//9k=</xmpGImg:image>
               </rdf:li>
            </rdf:Alt>
         </xmp:Thumbnails>
         <xmpTPg:MaxPageSize rdf:parseType="Resource">
            <stDim:w>100.000000</stDim:w>
            <stDim:h>62.380536</stDim:h>
            <stDim:unit>Pixels</stDim:unit>
         </xmpTPg:MaxPageSize>
         <xmpTPg:NPages>1</xmpTPg:NPages>
         <xmpTPg:HasVisibleTransparency>False</xmpTPg:HasVisibleTransparency>
         <xmpTPg:HasVisibleOverprint>False</xmpTPg:HasVisibleOverprint>
         <xmpTPg:PlateNames>
            <rdf:Seq>
               <rdf:li>Cyan</rdf:li>
               <rdf:li>Magenta</rdf:li>
               <rdf:li>Yellow</rdf:li>
               <rdf:li>Black</rdf:li>
            </rdf:Seq>
         </xmpTPg:PlateNames>
         <xmpTPg:SwatchGroups>
            <rdf:Seq>
               <rdf:li rdf:parseType="Resource">
                  <xmpG:groupName>Default Swatch Group</xmpG:groupName>
                  <xmpG:groupType>0</xmpG:groupType>
               </rdf:li>
            </rdf:Seq>
         </xmpTPg:SwatchGroups>
         <dc:format>image/svg+xml</dc:format>
      </rdf:Description>
   </rdf:RDF>
</x:xmpmeta>
                                                                                                    
                                                                                                    
                                                                                                    
                                                                                                    
                                                                                                    
                                                                                                    
                                                                                                    
                                                                                                    
                                                                                                    
                                                                                                    
                                                                                                    
                                                                                                    
                                                                                                    
                                                                                                    
                                                                                                    
                                                                                                    
                                                                                                    
                                                                                                    
                                                                                                    
                                                                                                    
                           
<?xpacket end="w"?>
	</metadata>
<g>
	<g transform="translate(697.0 96.0) rotate(0.0 180.0 309.0) scale(0.7130477841049765 0.713708280401894)">
		<g>
			<g transform="translate(-0.0 -0.0)">
				<g id="Layer_2-i3">
					<g id="robot_1-i3">
						<path class="st0" d="M-847.8-122.3c0.2,0.4,0.4,0.7,0.6,1.1c0-0.5-0.1-1-0.1-1.5C-847.5-122.5-847.6-122.4-847.8-122.3z"/>
						<path class="st0" d="M-898.3-130.5c0.5,0.3,1,0.8,1.2,1.4c3.6,6.3,13.9,9.9,25.2,8.8c11.1-1.1,20.8-6.7,23-13.3
							c0.1-0.3,0.3-0.6,0.5-0.9"/>
						<path class="st0" d="M-883.3-73.3c-0.6-0.5,3.1-23.9,2.9-24.8c-3.6-9.6-15.6-15.9-29.3-15.3c-13.4,0.6-25.7,8-29.1,17.4
							c-0.1,0.5-0.4,0.9-0.7,1.2c-0.1,1.1,0,2.2-0.1,3.3c2.2,1.3,15.9,20.2,18,21.5"/>
						<path class="st1" d="M-907.7-56.4c25.6,0,44.3-0.7,58.3-2.4l0,0c-1.9-2-3-4.7-3-7.5c-0.1-2.7,0.6-5.4,1.9-7.7
							c1.2-2.3,3.1-4.3,5.3-5.6c2.3-1.5,5.1-2.2,7.8-1.9h0.1c-0.6-13.8-3.9-27.4-9.8-39.9c-0.2-0.4-0.4-0.7-0.6-1.1
							c-5.5,5-13.8,8.6-23.2,9.6c-1.6,0.1-3.2,0.2-4.8,0.2c-8.2,0-15.8-2.1-21.1-6c0.1,1.2,0.2,2.5,0.2,3.6c0,1-0.1,2-0.4,3
							c6.2,10.2,9.1,22.1,8.5,34.1c-0.1,2.7-2.4,3.4-5,3.4h-0.2c-2.7-0.1-4.8-1-4.7-3.7c0.5-9-1.4-18-5.6-26c-3.2,1-6.7,0.8-9.8-0.5
							l-2.2-0.7c2.4,9.4,2.4,19.2,0.2,28.6c-0.5,2.4-2.2,2.5-4.6,2.5c-0.4,0-0.8,0-1.1-0.1c-2.7-0.6-4.7-1.9-4.1-4.6
							c2.3-9.7,1.7-19.8-1.7-29.1c-2.3-0.3-4.6-0.5-6.8-0.5c-39.9-0.1-43.6,30.5-42.6,47.6c1.6,1.4,3.6,2.3,5.7,2.5
							C-959.1-57.8-933-56.4-907.7-56.4z M-863.2-102.7c6.7,0,12.1,5.4,12.1,12.1c0,6.7-5.4,12.1-12.1,12.1
							c-6.7,0-12.1-5.4-12.1-12.1C-875.3-97.3-869.9-102.7-863.2-102.7L-863.2-102.7z"/>
						<path class="st2" d="M-875.9-112.6c1.6,0,3.2-0.1,4.8-0.2c9.4-1,17.8-4.5,23.2-9.6l0.4-0.4c-0.4-3.5-0.6-7.3-1-11.7
							c-0.2,0.3-0.4,0.6-0.5,0.9c-2.2,6.6-11.9,12.2-23,13.3c-11.3,1.1-21.6-2.5-25.2-8.8c-0.3-0.5-0.8-1-1.2-1.4
							c0.4,4.4,0.7,8.3,1,11.8c0.1,0,0.1,0.1,0.1,0.1C-891.7-114.7-884.1-112.6-875.9-112.6z"/>
						<path class="st2" d="M-837.4-81.2L-837.4-81.2v-0.1c0-0.1,0-0.1-0.1-0.1h-0.1c-2.7-0.3-5.5,0.4-7.8,1.9
							c-2.3,1.3-4.1,3.3-5.3,5.6c-1.4,2.3-2,5-1.9,7.7c0,2.8,1.1,5.5,3,7.5l0,0c-14,1.6-32.7,2.4-58.3,2.4
							c-25.2,0-51.3-1.4-63.8-2.1c-2.1-0.1-4.2-1-5.7-2.5l0,0c0,0.7,0.1,1.4,0.1,2v0.1c0,0.6,0.1,1.2,0.1,1.9c0.5,4.3,4,7.7,8.3,8
							c11.9,0.7,36.8,2,60.8,2c25.6,0,43.9-0.9,57.4-2.5c0.5,0,0.9-0.1,1.4-0.2c0.1,0,0.2-0.1,0.4-0.1c0.3-0.1,0.7-0.2,1-0.4
							c0.1,0,0.1,0,0.2-0.1l0,0"/>
						<path class="st2" d="M-849.2-58.8L-849.2-58.8c-0.1-2.2,0.1-4.4,0.6-6.6"/>
						<ellipse class="st3" cx="-863.2" cy="-90.6" rx="5.1" ry="5.1"/>
						<path class="st4" d="M-863.2-78.6c6.7,0,12.1-5.4,12.1-12.1c0-6.7-5.4-12.1-12.1-12.1c-6.7,0-12.1,5.4-12.1,12.1
							C-875.3-84-869.9-78.6-863.2-78.6z M-863.2-97.7c3.9,0,7.1,3.2,7.1,7.1c0,3.9-3.2,7.1-7.1,7.1c-3.9,0-7-3.1-7.1-6.9
							c0-0.1,0-0.1,0-0.2C-870.3-94.5-867.1-97.7-863.2-97.7L-863.2-97.7z"/>
					</g>
				</g>
			</g>
		</g>
	</g>
</g>
<path class="st0" d="M77.5,40.7"/>
</svg>
